<svg width="136" height="136" viewBox="0 0 136 136" fill="none" xmlns="http://www.w3.org/2000/svg">
<g clip-path="url(#clip0)">
<circle cx="68" cy="68" r="64" stroke="#EAEBEC" stroke-width="8"/>
<path fill-rule="evenodd" clip-rule="evenodd" d="M68 8C36.2073 8 10.19 32.7275 8.13127 63.9992C7.98615 66.2036 6.20914 68 4 68C1.79086 68 -0.0122262 66.205 0.115716 63.9996C2.18638 28.3063 31.7875 0 68 0C104.212 0 133.814 28.3063 135.884 63.9996C136.012 66.2051 134.209 68 132 68C129.791 68 128.014 66.2036 127.869 63.9992C125.81 32.7275 99.7927 8 68 8Z" fill="url(#paint0_linear)"/>
<circle cx="69" cy="72" r="10" fill="#969CA0"/>
<g filter="url(#filter0_d)">
<path d="M129.927 54.4802C131.172 54.251 131.637 55.9854 130.444 56.4096L71.5519 77.346C68.151 78.555 64.4584 76.6876 63.5506 73.2996C62.6428 69.9116 64.907 66.4481 68.4567 65.7947L129.927 54.4802Z" fill="#C4C4C4"/>
</g>
<path d="M44.6588 112C44.5654 112 44.4814 111.963 44.4068 111.888C44.3321 111.813 44.2948 111.729 44.2948 111.636V102.27C44.2948 102.167 44.3274 102.079 44.3928 102.004C44.4581 101.929 44.5468 101.892 44.6588 101.892H46.2268C46.4508 101.892 46.6094 101.985 46.7028 102.172L50.0068 107.548V102.27C50.0068 102.167 50.0394 102.079 50.1048 102.004C50.1701 101.929 50.2588 101.892 50.3708 101.892H52.1348C52.2374 101.892 52.3214 101.929 52.3868 102.004C52.4614 102.079 52.4988 102.167 52.4988 102.27V111.622C52.4988 111.734 52.4661 111.827 52.4008 111.902C52.3354 111.967 52.2468 112 52.1348 112H50.5668C50.3428 112 50.1841 111.907 50.0908 111.72L46.7868 106.554V111.636C46.7868 111.748 46.7494 111.837 46.6748 111.902C46.6094 111.967 46.5254 112 46.4228 112H44.6588ZM57.4506 112.14C56.5453 112.14 55.8313 111.855 55.3086 111.286C54.7953 110.717 54.52 109.905 54.4826 108.85L54.4686 108.36L54.4826 107.856C54.52 106.811 54.7953 106.003 55.3086 105.434C55.8313 104.846 56.5406 104.552 57.4366 104.552C58.2766 104.552 58.958 104.832 59.4806 105.392V104.986C59.4806 104.883 59.5133 104.799 59.5786 104.734C59.6533 104.669 59.7373 104.636 59.8306 104.636H61.6366C61.7393 104.636 61.8233 104.669 61.8886 104.734C61.9633 104.799 62.0006 104.883 62.0006 104.986V111.65C62.0006 111.753 61.9633 111.837 61.8886 111.902C61.8233 111.967 61.7393 112 61.6366 112H59.9706C59.8773 112 59.7933 111.967 59.7186 111.902C59.6533 111.827 59.6206 111.743 59.6206 111.65V111.216C59.1166 111.832 58.3933 112.14 57.4506 112.14ZM59.2426 109.298C59.364 108.999 59.4153 108.631 59.3966 108.192C59.378 107.977 59.35 107.809 59.3126 107.688C59.1446 107.063 58.818 106.685 58.3326 106.554C58.1646 106.507 57.9966 106.498 57.8286 106.526C57.67 106.545 57.5206 106.596 57.3806 106.68C57.2406 106.755 57.124 106.848 57.0306 106.96C56.8066 107.203 56.676 107.595 56.6386 108.136C56.6293 108.183 56.6246 108.243 56.6246 108.318C56.606 109.111 56.7926 109.653 57.1846 109.942C57.3993 110.101 57.6746 110.18 58.0106 110.18C58.3653 110.171 58.6546 110.068 58.8786 109.872C59.0186 109.751 59.14 109.559 59.2426 109.298ZM64.7834 109.214V106.624H63.6774C63.5841 106.624 63.5001 106.591 63.4254 106.526C63.3601 106.451 63.3274 106.367 63.3274 106.274V105.07C63.3274 104.967 63.3601 104.883 63.4254 104.818C63.5001 104.753 63.5841 104.72 63.6774 104.72H64.7834V102.41C64.7834 102.307 64.8161 102.223 64.8814 102.158C64.9561 102.093 65.0401 102.06 65.1334 102.06H66.8554C66.9581 102.06 67.0421 102.093 67.1074 102.158C67.1728 102.223 67.2054 102.307 67.2054 102.41V104.72H68.9554C69.0581 104.72 69.1421 104.753 69.2074 104.818C69.2821 104.883 69.3194 104.967 69.3194 105.07V106.274C69.3194 106.377 69.2821 106.461 69.2074 106.526C69.1421 106.591 69.0581 106.624 68.9554 106.624H67.2054V109.004C67.2054 109.331 67.2661 109.578 67.3874 109.746C67.5088 109.914 67.7048 109.998 67.9754 109.998H69.0814C69.1841 109.998 69.2681 110.035 69.3334 110.11C69.3988 110.175 69.4314 110.259 69.4314 110.362V111.65C69.4314 111.743 69.3988 111.827 69.3334 111.902C69.2681 111.967 69.1841 112 69.0814 112H67.7514C65.7728 112 64.7834 111.071 64.7834 109.214ZM73.0943 104.734C73.4116 104.715 73.575 104.79 73.5843 104.958V111.678C73.5843 111.753 73.5376 111.827 73.4443 111.902C73.351 111.967 73.211 112 73.0243 112H71.9603C71.839 112.009 71.7083 111.986 71.5683 111.93C71.475 111.865 71.4283 111.79 71.4283 111.706V105.014C71.419 104.827 71.5963 104.734 71.9603 104.734H73.0943ZM72.5063 103.67C72.1703 103.67 71.8856 103.553 71.6523 103.32C71.419 103.077 71.3023 102.788 71.3023 102.452C71.3023 102.116 71.419 101.831 71.6523 101.598C71.8856 101.365 72.1703 101.248 72.5063 101.248C72.8423 101.248 73.127 101.365 73.3603 101.598C73.5936 101.831 73.7103 102.116 73.7103 102.452C73.7103 102.788 73.5936 103.073 73.3603 103.306C73.127 103.539 72.8423 103.661 72.5063 103.67ZM78.6249 112C78.4942 112 78.3915 111.972 78.3169 111.916C78.2515 111.851 78.1955 111.762 78.1489 111.65L75.4889 105.154C75.4795 105.126 75.4749 105.089 75.4749 105.042C75.4749 104.949 75.5029 104.874 75.5589 104.818C75.6242 104.753 75.7035 104.72 75.7969 104.72H77.4629C77.6589 104.72 77.7989 104.818 77.8829 105.014L79.4089 109.2L80.9489 105.014C80.9769 104.939 81.0235 104.874 81.0889 104.818C81.1542 104.753 81.2429 104.72 81.3549 104.72H83.0349C83.1189 104.72 83.1935 104.753 83.2589 104.818C83.3242 104.874 83.3569 104.949 83.3569 105.042L83.3289 105.154L80.6829 111.65C80.6362 111.762 80.5755 111.851 80.5009 111.916C80.4262 111.972 80.3235 112 80.1929 112H78.6249ZM88.5177 112.14C87.379 112.14 86.483 111.837 85.8297 111.23C85.1764 110.614 84.8404 109.723 84.8217 108.556V108.122C84.859 107.011 85.2044 106.143 85.8577 105.518C86.511 104.893 87.393 104.58 88.5037 104.58C89.3064 104.58 89.983 104.743 90.5337 105.07C91.0937 105.387 91.509 105.831 91.7797 106.4C92.0597 106.96 92.1997 107.599 92.1997 108.318V108.668C92.1997 108.771 92.1624 108.859 92.0877 108.934C92.0224 108.999 91.9384 109.032 91.8357 109.032H87.3977V109.116C87.407 109.536 87.505 109.877 87.6917 110.138C87.8784 110.39 88.1444 110.516 88.4897 110.516C88.7137 110.516 88.891 110.474 89.0217 110.39C89.1617 110.297 89.2924 110.18 89.4137 110.04C89.4977 109.947 89.563 109.891 89.6097 109.872C89.6657 109.844 89.7497 109.83 89.8617 109.83H91.6957C91.7797 109.83 91.8497 109.858 91.9057 109.914C91.971 109.961 92.0037 110.021 92.0037 110.096C92.0037 110.339 91.8637 110.623 91.5837 110.95C91.313 111.277 90.9117 111.557 90.3797 111.79C89.857 112.023 89.2364 112.14 88.5177 112.14ZM89.6237 107.604V107.576C89.6237 107.128 89.5257 106.783 89.3297 106.54C89.1337 106.288 88.8584 106.162 88.5037 106.162C88.149 106.162 87.8737 106.288 87.6777 106.54C87.491 106.783 87.3977 107.128 87.3977 107.576V107.604H89.6237Z" fill="#576168"/>
</g>
<defs>
<filter id="filter0_d" x="53.9961" y="41.4043" width="86.655" height="45.6909" filterUnits="userSpaceOnUse" color-interpolation-filters="sRGB">
<feFlood flood-opacity="0" result="BackgroundImageFix"/>
<feColorMatrix in="SourceAlpha" type="matrix" values="0 0 0 0 0 0 0 0 0 0 0 0 0 0 0 0 0 0 127 0"/>
<feOffset/>
<feGaussianBlur stdDeviation="4"/>
<feColorMatrix type="matrix" values="0 0 0 0 0.176471 0 0 0 0 0.223529 0 0 0 0 0.258824 0 0 0 0.2 0"/>
<feBlend mode="normal" in2="BackgroundImageFix" result="effect1_dropShadow"/>
<feBlend mode="normal" in="SourceGraphic" in2="effect1_dropShadow" result="shape"/>
</filter>
<linearGradient id="paint0_linear" x1="136" y1="43.5" x2="6.90138e-07" y2="43" gradientUnits="userSpaceOnUse">
<stop stop-color="#6ACFED"/>
<stop offset="0.302487" stop-color="#2CC895"/>
<stop offset="0.724713" stop-color="#FFC05C"/>
<stop offset="1" stop-color="#EA4B65"/>
</linearGradient>
<clipPath id="clip0">
<rect width="136" height="136" fill="white"/>
</clipPath>
</defs>
</svg>
