<svg width="300" height="300" viewBox="0 0 300 300" fill="none" xmlns="http://www.w3.org/2000/svg"><g clip-path="url(#clip0_46_2286)"><path d="M221.74 238.63c-.994.001-1.961-.326-2.75-.93l-40.18-30.85c-9.49 1.834-19.134 2.751-28.8 2.74-58.45 0-106-33.1-106-73.79 0-40.69 47.56-73.8 106-73.8s106 33.1 106 73.8c0 22.43-14.1 43.1-38.82 57.15l9 40.18c.199.907.114 1.854-.244 2.711-.358.857-.971 1.583-1.756 2.079-.724.466-1.568.713-2.43.71h-.02z" fill="#E8E8E8"/><path d="M150.01 62.41c58.22 0 105.59 32.91 105.59 73.39 0 21.78-13.43 41.84-36.79 55.72-.69.41-1.33 1.06-2 1.45l9 40.25c.37 1.69-.71 3.15-2.17 4.08-.729.383-1.548.559-2.37.51-.98-.052-1.922-.401-2.7-1l-36.73-28.2c-.11 0-3.08-2.16-3.19-2.14-9.418 1.815-18.989 2.722-28.58 2.71-58.24 0-105.6-32.91-105.6-73.38s47.3-73.39 105.54-73.39z" fill="#E9E9E9"/><path d="M150.01 62.82c58 0 105.18 32.72 105.18 73 0 21.83-13.64 41.87-37.06 55.63-.62.37-1.13 1.21-1.77 1.57l9 40.31c.33 1.52-1 2.53-2.35 3.36-.734.302-1.532.412-2.32.32-.961-.103-1.875-.47-2.64-1.06l-36.45-28c-.21 0-3-1.9-3.23-1.85-9.344 1.783-18.837 2.677-28.35 2.67-58 0-105.19-32.72-105.19-73s47.16-72.95 105.18-72.95z" fill="#EAEAEA"/><path d="M150.01 65.28c57.79 0 104.76 32.15 104.76 71.71 0 21.62-13.83 41.41-37.32 54.88-.54.33-.94 1.35-1.5 1.66l9 39.9c.3 1.33-1.36 1.88-2.53 2.62-.54.34-1.65.13-2.26.13-.942-.156-1.831-.541-2.59-1.12l-36.15-27.43c-.32.07-2.94-1.61-3.27-1.55-9.275 1.745-18.692 2.619-28.13 2.61-57.8 0-104.78-32.15-104.78-71.7 0-39.55 46.97-71.71 104.77-71.71z" fill="#EBEBEB"/><path d="M150.01 63.64c57.57 0 104.35 32.35 104.35 72.16 0 21.94-14 41.94-37.58 55.45-.48.29-.76 1.52-1.25 1.79l9 40.45c.27 1.18-1.7 1.28-2.71 1.93-.48.3-1.67-.06-2.21-.06-.919-.211-1.781-.617-2.53-1.19l-35.86-27.54c-.43.09-2.87-1.37-3.3-1.29-9.201 1.746-18.545 2.62-27.91 2.61-57.58 0-104.37-32.35-104.37-72.15 0-39.8 46.79-72.16 104.37-72.16z" fill="#ECECEC"/><path d="M150.01 70.92c57.35 0 103.94 30.86 103.94 68.86 0 21.11-14.23 40.28-37.85 53.14-.41.23-.56 1.6-1 1.83l9 38.88c.23 1-2 .63-2.9 1.16-.4.26-1.69-.23-2.15-.23-.892-.253-1.732-.663-2.48-1.21l-35.53-26.23c-.54.11-2.8-1.06-3.35-1-9.134 1.65-18.398 2.477-27.68 2.47-57.36 0-104-30.87-104-68.86 0-37.99 46.64-68.81 104-68.81z" fill="#EDEDED"/><path d="M150.01 64.46c57.14 0 103.54 32 103.54 71.34 0 22-14.44 42-38.12 55.27-.35.21-.38 1.82-.73 2l9 40.58c.19.84-2.36 0-3.09.5-.33.21-1.71-.44-2.09-.44-.871-.314-1.688-.763-2.42-1.33l-35.29-27.09c-.64.14-2.72-.84-3.38-.72-9.041 1.7-18.221 2.554-27.42 2.55-57.15 0-103.55-32-103.55-71.33s46.4-71.33 103.55-71.33z" fill="#EEE"/><path style="mix-blend-mode:screen" d="M250.52 122.76c-1.091-8.119-4.104-15.86-8.79-22.58-12.65-15.63-33.35-27.71-58.18-33.53-14.639-2.6737-29.607-3.0415-44.36-1.09-54.36 7-95.08 41.92-93.6 79.16 5.44 30.82 38.66 55.75 81.73 62.33 19.142 1.418 38.377-.874 56.65-6.75.74-.24 2.72.24 3.45 0l35.1 20.4-6.18-27.7c.64-.36 1.15-1.2 1.77-1.57 1-.6 2-1.24 3-1.86l-1.81-5c.26-.2-.06-2 .19-2.18 21.9-16.07 33.88-37.71 31.03-59.63z" fill="url(#paint0_linear_46_2286)"/><path d="M150.01 70.92c56.7 0 102.71 30.53 102.71 68.15 0 21.42-14.84 40.66-38.65 53.26-.2.12 0 2.06-.2 2.17l9.07 39.35c.11.49-3-1.17-3.46-.9-.2.13-1.75-.8-2-.8-.811-.396-1.584-.865-2.31-1.4l-34.65-25.76c-.85.18-2.58-.29-3.45-.14-8.912 1.592-17.947 2.389-27 2.38-56.71 0-102.73-30.53-102.73-68.16 0-37.63 45.96-68.15 102.67-68.15z" fill="#EFEFEF"/><path d="M150.01 72.05c56.48 0 102.3 30.21 102.3 67.45 0 21.37-15 40.51-38.91 52.93-.14.08.2 2.2.06 2.27l9.06 39.24c.08.32-3.35-1.77-3.64-1.59-.13.08-1.78-1-1.93-1-.78-.444-1.534-.932-2.26-1.46l-34.41-25.43c-1 .2-2.52 0-3.5.13-8.844 1.566-17.809 2.349-26.79 2.34-56.49 0-102.31-30.22-102.31-67.46 0-37.24 45.84-67.42 102.33-67.42z" fill="#F0F0F0"/><path d="M150.01 70.92c56.26 0 101.89 30.31 101.89 67.69 0 21.62-15.25 40.92-39.18 53.34-.07 0 .39 2.37.32 2.41l9.1 39.67c0 .16-3.68-2.39-3.83-2.3-.15.09-1.8-1.17-1.87-1.17-.09 0-2.13-1.48-2.2-1.54l-34.13-25.45c-1.07.22-2.44.21-3.53.41-8.771 1.556-17.662 2.332-26.57 2.32-56.27 0-101.9-30.31-101.9-67.69 0-37.38 45.63-67.69 101.9-67.69z" fill="#F1F1F1"/><path d="M251.52 137.91c0-37.43-45.46-67.79-101.51-67.79-56.05 0-101.49 30.36-101.49 67.79 0 37.43 45.43 67.79 101.49 67.79 10.049.01 20.073-.995 29.92-3l41.81 31.42-9.69-42.55c23.99-12.45 39.47-31.83 39.47-53.66z" fill="#F2F2F2"/><path d="M183.52 197.37c-1.025-.784-2.28-1.209-3.57-1.21-.406 0-.812.041-1.21.12-9.443 1.969-19.064 2.954-28.71 2.94-26 0-50.26-6.85-68.47-19.27-17.52-12-27.17-27.65-27.17-44.15s9.65-32.2 27.17-44.16c18.21-12.42 42.52-19.27 68.47-19.27 25.95 0 50.25 6.85 68.45 19.27 17.52 12 27.17 27.64 27.17 44.16 0 19.35-13.23 37.45-36.32 49.64-1.139.596-2.051 1.551-2.593 2.717-.542 1.166-.685 2.478-.407 3.733l6.19 27.76-29-22.28z" fill="#D9D9D9"/><path d="M184.36 197.29c-1.145-.889-2.551-1.374-4-1.38-.457.002-.912.049-1.36.14-9.394 1.958-18.964 2.944-28.56 2.94-25.8 0-50-6.83-68.05-19.21-17.32-11.87-26.87-27.37-26.87-43.66 0-16.29 9.54-31.83 26.84-43.69 18.09-12.38 42.25-19.21 68.05-19.21 25.8 0 49.95 6.83 68 19.21 17.31 11.86 26.85 27.37 26.85 43.69 0 19.13-13.09 37.05-35.93 49.15-1.282.689-2.304 1.778-2.911 3.101-.606 1.323-.764 2.808-.449 4.229l5.74 25.77-27.35-21.08z" fill="url(#paint1_linear_46_2286)"/><path d="M185.23 197.21c-1.281-.996-2.857-1.537-4.48-1.54-.508-.002-1.014.052-1.51.16-9.342 1.965-18.864 2.947-28.41 2.93-25.65 0-49.66-6.8-67.63-19.15-17.09-11.76-26.51-27.11-26.51-43.21s9.42-31.46 26.51-43.22c18-12.35 42-19.15 67.63-19.15 25.63 0 49.65 6.8 67.61 19.15 17.11 11.76 26.52 27.1 26.52 43.22 0 18.9-12.95 36.64-35.52 48.65-1.431.779-2.571 2.002-3.247 3.484-.676 1.483-.853 3.145-.503 4.736l5.3 23.79-25.76-19.85z" fill="#DFDFDF"/><path d="M186.09 197.12c-1.406-1.105-3.142-1.707-4.93-1.71-.558-.001-1.115.06-1.66.18-9.293 1.952-18.764 2.93-28.26 2.92-25.5 0-49.36-6.78-67.2-19.1-16.89-11.65-26.2-26.83-26.2-42.74 0-15.91 9.31-31.09 26.2-42.74 17.84-12.31 41.7-19.09 67.2-19.09s49.36 6.78 67.19 19.09c16.89 11.65 26.2 26.83 26.2 42.74 0 18.7-12.83 36.21-35.13 48.17-1.58.865-2.837 2.221-3.58 3.862-.743 1.641-.933 3.48-.54 5.238l4.85 21.81-24.14-18.63z" fill="#E2E2E2"/><path d="M186.95 197.06c-1.531-1.213-3.426-1.875-5.38-1.88-.612.002-1.222.069-1.82.2-9.238 1.957-18.657 2.936-28.1 2.92-25.35 0-49.07-6.76-66.78-19C68.19 167.75 59 152.74 59 137.03c0-15.71 9.19-30.72 25.87-42.27 17.71-12.27 41.43-19 66.78-19s49.06 6.76 66.78 19c16.68 11.55 25.86 26.56 25.86 42.27 0 18.47-12.68 35.8-34.73 47.67-1.73.957-3.103 2.449-3.914 4.251-.811 1.803-1.017 3.82-.586 5.749l4.4 19.83-22.51-17.47z" fill="#E6E6E6"/><path d="M187.82 196.98c-1.668-1.302-3.724-2.006-5.84-2-.672.003-1.342.073-2 .21-9.204 1.96-18.59 2.939-28 2.92-25.2 0-48.77-6.74-66.36-19-16.47-11.44-25.55-26.29-25.55-41.8 0-15.51 9.08-30.35 25.55-41.8 17.59-12.23 41.16-19 66.36-19 25.2 0 48.76 6.74 66.35 19 16.48 11.45 25.55 26.29 25.55 41.8 0 18.25-12.54 35.4-34.34 47.18-1.87 1.048-3.354 2.669-4.232 4.625-.879 1.955-1.106 4.141-.648 6.235l4 17.85-20.84-16.22z" fill="#E9E9E9"/><path d="M188.69 196.91c-1.793-1.423-4.012-2.201-6.3-2.21-.713.001-1.424.078-2.12.23-9.138 1.945-18.457 2.917-27.8 2.9-25 0-48.47-6.71-65.94-18.9-16.26-11.35-25.22-26-25.22-41.34 0-15.34 9-30 25.22-41.33 17.47-12.14 40.89-18.91 65.99-18.91 25.1 0 48.47 6.72 65.93 18.91 16.27 11.34 25.22 26 25.22 41.33 0 18-12.39 35-33.93 46.68-2.023 1.133-3.627 2.888-4.574 5.005-.948 2.116-1.188 4.481-.686 6.745l3.5 15.87-19.29-14.98z" fill="#ECECEC"/><path d="M189.52 196.83c-1.917-1.531-4.297-2.367-6.75-2.37-.766 0-1.53.081-2.28.24-9.084 1.949-18.349 2.924-27.64 2.91-24.9 0-48.17-6.7-65.52-18.85-16-11.25-24.89-25.76-24.89-40.87 0-15.11 8.84-29.62 24.89-40.86 17.35-12.16 40.62-18.85 65.52-18.85s48.17 6.69 65.51 18.85c16.06 11.24 24.9 25.75 24.9 40.86 0 17.8-12.23 34.64-33.54 46.19-2.168 1.224-3.886 3.112-4.902 5.385-1.015 2.274-1.274 4.813-.738 7.245l3.06 13.88-17.62-13.76z" fill="#EFEFEF"/><path d="M190.41 196.75c-2.044-1.636-4.582-2.532-7.2-2.54-.817.005-1.632.096-2.43.27-9.035 1.937-18.25 2.906-27.49 2.89-24.76 0-47.88-6.67-65.1-18.79-15.84-11.14-24.56-25.48-24.56-40.39s8.72-29.25 24.56-40.39c17.22-12.12 40.34-18.79 65.1-18.79 24.76 0 47.87 6.67 65.09 18.79 15.85 11.14 24.57 25.48 24.57 40.39 0 17.58-12.08 34.24-33.14 45.7-2.312 1.315-4.142 3.337-5.222 5.768-1.08 2.431-1.352 5.145-.778 7.742l2.62 11.89-16.02-12.54z" fill="#F3F3F3"/><path d="M191.28 196.68c-2.174-1.743-4.874-2.698-7.66-2.71-.868.001-1.733.099-2.58.29-8.986 1.921-18.151 2.88-27.34 2.86-24.61 0-47.57-6.66-64.68-18.74-15.63-11-24.24-25.21-24.24-39.92s8.61-28.89 24.24-39.92c17.11-12.08 40.07-18.73 64.68-18.73 24.61 0 47.58 6.65 64.67 18.73 15.64 11 24.25 25.21 24.25 39.92 0 17.36-11.94 33.83-32.75 45.2-2.467 1.413-4.415 3.581-5.558 6.184-1.143 2.602-1.421 5.504-.792 8.276l2.16 9.91-14.4-11.35z" fill="#F6F6F6"/><path d="M192.14 196.6c-2.299-1.849-5.159-2.861-8.11-2.87-.922 0-1.84.101-2.74.3-8.931 1.928-18.043 2.894-27.18 2.88-24.46 0-47.28-6.63-64.26-18.67-15.42-10.93-23.91-24.94-23.91-39.45 0-14.51 8.49-28.52 23.91-39.45 17-12 39.8-18.68 64.26-18.68 24.46 0 47.28 6.64 64.25 18.68 15.43 10.93 23.92 24.94 23.92 39.45 0 17.14-11.79 33.43-32.34 44.71-2.613 1.49-4.681 3.777-5.901 6.526-1.22 2.749-1.528 5.817-.879 8.754l1.72 7.93-12.74-10.11z" fill="#F9F9F9"/><path d="M193.01 196.52c-2.438-1.936-5.457-2.993-8.57-3-.971.003-1.94.107-2.89.31-8.869 1.935-17.922 2.904-27 2.89-24.31 0-47-6.62-63.83-18.62-15.22-10.83-23.6-24.67-23.6-39 0-14.33 8.38-28.15 23.6-39 16.85-12 39.52-18.6 63.83-18.6 24.31 0 46.97 6.62 63.8 18.62 15.22 10.84 23.6 24.68 23.6 39 0 16.92-11.65 33-31.95 44.21-2.758 1.58-4.941 4-6.228 6.907-1.288 2.906-1.615 6.148-.932 9.253l1.28 6-11.11-8.97z" fill="#FCFCFC"/><path d="M97.4 151.72c.16.2.4.28.68.28h3.68c.28 0 .52-.08.72-.28.16-.2.28-.44.28-.72v-11h11.68v11c0 .28.08.52.28.72.16.2.4.28.68.28h3.72c.28 0 .52-.08.68-.28.16-.2.28-.44.28-.72v-26.84c0-.28-.12-.52-.28-.72-.16-.2-.4-.32-.68-.32h-3.72c-.28 0-.52.12-.68.32-.2.2-.28.44-.28.72v10.6h-11.68v-10.6c0-.28-.12-.52-.28-.72-.2-.2-.44-.32-.72-.32h-3.68c-.32 0-.56.12-.72.32-.16.2-.24.44-.24.72V151c0 .28.08.52.28.72zm31.339-1.88c1.76 1.72 4.12 2.56 7.16 2.56 1.84 0 3.44-.32 4.88-.96 1.44-.64 2.52-1.36 3.28-2.24.72-.88 1.12-1.64 1.12-2.28 0-.24-.08-.4-.24-.56-.2-.12-.4-.2-.64-.2h-3.52c-.32 0-.52.04-.64.12-.16.08-.32.24-.56.52-.96 1.24-2.24 1.84-3.76 1.84-1.36 0-2.4-.48-3.16-1.44-.76-.96-1.16-2.2-1.16-3.72v-.32h13.28c.24 0 .48-.08.68-.28.16-.16.28-.4.28-.68v-.84c0-3.2-.88-5.76-2.6-7.68-1.72-1.92-4.16-2.88-7.32-2.88-3.12 0-5.52.96-7.24 2.88-1.76 1.92-2.6 4.56-2.6 7.88v1c.08 3.16 1 5.6 2.76 7.28zm11.48-10.08h-8.72v-.08c-.04-1.56.32-2.8 1.12-3.76s1.84-1.44 3.2-1.44 2.4.48 3.2 1.44c.8.96 1.2 2.2 1.2 3.76v.08zm11.085 11.96c.16.2.4.28.68.28h3.36c.28 0 .52-.08.68-.28.16-.16.28-.4.28-.68v-28.32c0-.28-.12-.52-.28-.68-.16-.16-.4-.28-.68-.28h-3.36c-.28 0-.52.12-.68.28-.2.16-.28.4-.28.68v28.32c0 .28.08.52.28.68zm11.625 0c.16.2.4.28.68.28h3.36c.28 0 .52-.08.68-.28.16-.16.28-.4.28-.68v-28.32c0-.28-.12-.52-.28-.68-.16-.16-.4-.28-.68-.28h-3.36c-.28 0-.52.12-.68.28-.2.16-.28.4-.28.68v28.32c0 .28.08.52.28.68zm13.225-1.64c1.72 1.6 4.16 2.4 7.28 2.4s5.52-.8 7.24-2.4c1.72-1.6 2.64-3.8 2.76-6.64.04-.28.08-.88.08-1.76s-.04-1.44-.08-1.76c-.12-2.8-1.04-5-2.8-6.6-1.76-1.6-4.16-2.44-7.2-2.44-3.08 0-5.48.84-7.24 2.44-1.76 1.6-2.68 3.8-2.76 6.6l-.08 1.76.08 1.76c.08 2.84 1 5.04 2.72 6.64zm7.28-1.64c-1.44 0-2.52-.44-3.28-1.32-.8-.88-1.2-2.16-1.2-3.88l-.08-1.56.08-1.56c0-1.68.4-3 1.2-3.88.76-.88 1.84-1.36 3.28-1.36 1.4 0 2.48.48 3.28 1.36.76.88 1.16 2.2 1.2 3.88.04.28.08.8.08 1.56 0 .8-.04 1.32-.08 1.56-.04 1.72-.44 3-1.2 3.88-.76.88-1.84 1.32-3.28 1.32zm15.511 1.44c0 .76.24 1.4.8 1.92.52.56 1.16.8 1.92.8.72 0 1.36-.24 1.92-.8.52-.52.8-1.16.8-1.92 0-.72-.28-1.36-.8-1.92-.56-.52-1.2-.8-1.92-.8-.76 0-1.4.28-1.92.8-.56.56-.8 1.2-.8 1.92zm.88-5.32c.24.24.56.36.96.36h1.76c.16 0 .36-.04.56-.12.16-.04.28-.12.44-.28.08-.08.16-.2.28-.44.04-.16.08-.32.08-.52V124.6c0-.36-.16-.68-.4-.96-.28-.24-.6-.36-.96-.36h-1.76c-.4 0-.68.12-.92.36-.28.24-.4.56-.4.96v18.96c0 .4.12.76.36 1z" fill="#969CA0"/></g><defs><linearGradient id="paint0_linear_46_2286" x1="45.59" y1="142.52" x2="250.96" y2="142.52" gradientUnits="userSpaceOnUse"><stop stop-color="#fff"/><stop offset=".53"/><stop offset="1" stop-color="#fff"/></linearGradient><linearGradient id="paint1_linear_46_2286" x1="55.53" y1="145.78" x2="245.3" y2="145.78" gradientUnits="userSpaceOnUse"><stop stop-color="#AAACAE"/><stop offset=".4" stop-color="#fff"/><stop offset="1" stop-color="#8F8F8F"/></linearGradient><clipPath id="clip0_46_2286"><path fill="#fff" transform="translate(44 62)" d="M0 0h212v176.63H0z"/></clipPath></defs></svg>