<svg width="192" height="40" viewBox="0 0 192 40" fill="none" xmlns="http://www.w3.org/2000/svg"><path d="M54.1329 29.328c.144.456.456.672.936.672h2.664c.456 0 .768-.216.936-.672l5.088-15.936.048-.216c0-.144-.072-.264-.168-.36-.096-.096-.216-.144-.312-.144h-2.16c-.216 0-.384.072-.528.168-.144.12-.216.24-.24.36l-4.008 12.816-4.008-12.816c-.048-.12-.144-.24-.288-.36-.144-.096-.288-.168-.48-.168h-2.16c-.144 0-.24.048-.336.144-.096.096-.144.216-.144.36v.216l5.16 15.936zm13.5793-.48c1.032.96 2.496 1.44 4.368 1.44 1.872 0 3.312-.48 4.344-1.44 1.032-.96 1.584-2.28 1.656-3.984.024-.168.048-.528.048-1.056s-.024-.864-.048-1.056c-.072-1.68-.624-3-1.68-3.96s-2.496-1.464-4.32-1.464c-1.848 0-3.288.504-4.344 1.464-1.056.96-1.608 2.28-1.656 3.96l-.048 1.056.048 1.056c.048 1.704.6 3.024 1.632 3.984zm4.368-.984c-.864 0-1.512-.264-1.968-.792-.48-.528-.72-1.296-.72-2.328l-.048-.936.048-.936c0-1.008.24-1.8.72-2.328.456-.528 1.104-.816 1.968-.816.84 0 1.488.288 1.968.816.456.528.696 1.32.72 2.328.024.168.048.48.048.936 0 .48-.024.792-.048.936-.024 1.032-.264 1.8-.72 2.328-.456.528-1.104.792-1.968.792zm9.2586-12.816c.096.12.24.168.408.168h2.208c.168 0 .312-.048.432-.168.12-.096.192-.24.192-.408v-1.752c0-.168-.072-.312-.168-.432-.12-.096-.264-.168-.456-.168h-2.208c-.168 0-.312.072-.408.168-.12.12-.168.264-.168.432v1.752c0 .168.048.312.168.408zm.096 14.784c.096.12.24.168.408.168h2.064c.144 0 .288-.048.408-.168.096-.096.168-.24.168-.408V18.096c0-.144-.072-.288-.168-.408-.12-.096-.264-.168-.408-.168h-2.064c-.144 0-.288.072-.408.168-.12.096-.168.24-.168.408v11.328c0 .168.048.312.168.408zm7.8396-1.104c1.056.984 2.448 1.464 4.224 1.464 1.296 0 2.376-.216 3.24-.696.864-.456 1.488-1.008 1.92-1.656.408-.648.624-1.248.672-1.824 0-.144-.048-.288-.168-.408-.12-.096-.264-.168-.408-.168h-2.136c-.288 0-.504.168-.624.504-.24.624-.552 1.08-.936 1.344s-.888.384-1.512.384c-1.68 0-2.544-1.032-2.64-3.12l-.024-.792.024-.888c.024-1.056.264-1.824.72-2.352.456-.504 1.032-.768 1.752-.768s1.272.144 1.656.408c.384.288.72.72.96 1.32.072.192.144.336.24.408.072.072.192.096.384.096h2.136c.144 0 .288-.048.408-.168.12-.096.168-.24.168-.408-.048-.576-.264-1.2-.696-1.848-.432-.648-1.08-1.2-1.944-1.656-.864-.432-1.944-.672-3.192-.672-1.776 0-3.168.504-4.224 1.464-1.056.984-1.608 2.328-1.656 4.056l-.024.96.024.96c.048 1.728.6 3.096 1.656 4.056zm14.1666-.024c1.056 1.032 2.472 1.536 4.296 1.536 1.104 0 2.064-.192 2.928-.576.864-.384 1.512-.816 1.968-1.344.432-.528.672-.984.672-1.368 0-.144-.048-.24-.144-.336-.12-.072-.24-.12-.384-.12h-2.112c-.192 0-.312.024-.384.072-.096.048-.192.144-.336.312-.576.744-1.344 1.104-2.256 1.104-.816 0-1.44-.288-1.896-.864-.456-.576-.696-1.32-.696-2.232v-.192h7.968c.144 0 .288-.048.408-.168.096-.096.168-.24.168-.408v-.504c0-1.92-.528-3.456-1.56-4.608-1.032-1.152-2.496-1.728-4.392-1.728-1.872 0-3.312.576-4.344 1.728-1.056 1.152-1.56 2.736-1.56 4.728v.6c.048 1.896.6 3.36 1.656 4.368zm6.888-6.048h-5.232v-.048c-.024-.936.192-1.68.672-2.256.48-.576 1.104-.864 1.92-.864.816 0 1.44.288 1.92.864.48.576.72 1.32.72 2.256v.048zm6.795 7.176c.096.12.24.168.408.168h7.176c1.8 0 3.216-.456 4.224-1.416 1.008-.936 1.512-2.184 1.512-3.72 0-.912-.24-1.704-.696-2.424-.48-.696-1.032-1.2-1.704-1.536.528-.24 1.008-.672 1.416-1.296.408-.6.624-1.32.624-2.184 0-1.464-.48-2.616-1.392-3.48-.936-.84-2.328-1.272-4.2-1.272h-6.96c-.192 0-.336.072-.432.168-.096.12-.144.264-.144.456V29.4c0 .168.048.312.168.432zm6.936-10.056h-3.72v-4.464h3.72c.816 0 1.464.192 1.896.576.432.384.648.936.648 1.608 0 .696-.24 1.248-.672 1.656-.432.432-1.056.624-1.872.624zm.24 7.56h-3.96v-4.992h3.96c.816 0 1.44.24 1.92.72s.72 1.08.72 1.8-.24 1.32-.696 1.776c-.48.48-1.128.696-1.944.696zm10.476 1.488c.84.96 2.016 1.44 3.504 1.44 1.752 0 3.072-.6 3.984-1.8v.984c0 .168.048.312.168.408.096.12.24.168.408.168h1.968c.192 0 .336-.048.432-.168.096-.12.144-.264.144-.408V18.12c0-.168-.048-.312-.144-.408-.096-.096-.24-.168-.432-.168h-2.112c-.168 0-.312.072-.408.168-.12.096-.168.24-.168.408v6.6c0 .912-.264 1.632-.744 2.16-.48.528-1.152.792-1.992.792-1.704 0-2.544-.984-2.544-2.952v-6.6c0-.144-.072-.288-.168-.408-.12-.096-.264-.168-.408-.168h-2.16c-.168 0-.312.072-.408.168-.12.096-.168.24-.168.408v6.744c0 1.68.408 3 1.248 3.96zm15.146-.144c.864 1.056 2.088 1.56 3.72 1.56 1.656 0 2.928-.576 3.816-1.728v.912c0 .168.048.312.168.408.096.12.24.168.408.168h1.944c.168 0 .312-.048.408-.168.096-.096.168-.24.168-.408l.024-16.272c0-.168-.072-.312-.168-.408-.096-.096-.24-.168-.408-.168h-2.088c-.168 0-.312.072-.408.168-.12.096-.168.24-.168.408l-.024 5.664c-.816-.912-2.04-1.392-3.72-1.392-1.68 0-2.928.48-3.696 1.392-.864 1.056-1.344 2.448-1.392 4.128l-.024.792.024.792c.072 1.728.552 3.12 1.416 4.152zm6.648-1.92c-.432.576-1.104.864-2.016.864-1.728 0-2.64-1.056-2.736-3.168l-.024-.72.024-.72c.048-1.056.288-1.8.72-2.28.432-.48 1.104-.72 1.968-.72 1.008 0 1.68.24 2.064.672.456.576.696 1.248.744 2.04 0 .192.024.504.024.936 0 .432-.024.72-.024.912-.048.864-.312 1.608-.744 2.184zm8.574 1.92c.864 1.056 2.088 1.56 3.72 1.56 1.656 0 2.928-.576 3.816-1.728v.912c0 .168.048.312.168.408.096.12.24.168.408.168h1.944c.168 0 .312-.048.408-.168.096-.096.168-.24.168-.408l.024-16.272c0-.168-.072-.312-.168-.408-.096-.096-.24-.168-.408-.168h-2.088c-.168 0-.312.072-.408.168-.12.096-.168.24-.168.408l-.024 5.664c-.816-.912-2.04-1.392-3.72-1.392-1.68 0-2.928.48-3.696 1.392-.864 1.056-1.344 2.448-1.392 4.128l-.024.792.024.792c.072 1.728.552 3.12 1.416 4.152zm6.648-1.92c-.432.576-1.104.864-2.016.864-1.728 0-2.64-1.056-2.736-3.168l-.024-.72.024-.72c.048-1.056.288-1.8.72-2.28.432-.48 1.104-.72 1.968-.72 1.008 0 1.68.24 2.064.672.456.576.696 1.248.744 2.04 0 .192.024.504.024.936 0 .432-.024.72-.024.912-.048.864-.312 1.608-.744 2.184zm9.342 7.896c.096.096.216.144.36.144h1.92c.312 0 .528-.144.672-.456l7.056-16.296c.048-.144.096-.264.096-.384s-.048-.24-.144-.336c-.096-.096-.24-.144-.384-.144h-1.92c-.288 0-.528.168-.672.456l-3.264 7.824-3.168-7.824c-.144-.288-.336-.456-.624-.456h-2.016c-.144 0-.24.072-.336.168-.096.096-.168.216-.192.36 0 .096.024.192.096.336l4.608 10.872-2.136 5.016c-.072.144-.096.288-.096.384 0 .144.048.24.144.336z" fill="#1B7892"/><path d="M6.33945 21.6614c7.12665.3725 9.82915-.6318 9.82915-.6318 6.7305-2.8857 5.1693-10.1189 5.1693-10.1189-1.7262-6.17693-7.6926-6.49285-7.6926-6.49285l-13.640112.033L.05707 26.2635h.462217c1.169693-5.5923 5.820163-4.6021 5.820163-4.6021zM33.8927 25.9429l-6.372.0896s-5.9239 1.3014-3.0374 7.6622c0 0 1.2546 2.0606 4.5703 1.9804l10.9423-.0189-.0378-15.1688-.4669-.0048c.0472 1.6598-.4103 5.564-5.5985 5.4603z" fill="#6ACFED"/><path d="M3.9058 39.9894c.09433.0095.19338.0095.29243.0095.21696.0047.43392-.0047.64616-.0283v-.2876l-.03302-12.9622v-.1367c-.00471-.283.22168-.5187.50467-.5281 0 0 .89613-.0095.89613 0l6.66443-.0142.1934-.0094c7.169-.0189 12.9656-5.8469 12.9468-13.014C26.0026 5.85121 20.1824.056193 13.0134.070338l-8.90007.00943c-.96688 0-1.90075.344212-2.63652.966622l.24054.00472 10.77245-.02358h.5283c6.6502-.01415 12.0506 5.36121 12.0648 12.00497.0141 6.6438-5.3627 12.0474-12.0082 12.0616l-.1981.0094-6.47577.0141-1.07536.0095c-.8018 0-1.45268.6554-1.45268 1.457v.1367l.03301 13.2781" fill="#1B7892"/><path d="M2.0286 39.3906l-.03301-12.6651v-.1367c-.00472-1.8437 1.48098-3.3431 3.32513-3.3526h.49523l7.05585-.0188.1887-.0095c5.6174-.0094 10.1641-4.5737 10.1546-10.1896-.0094-5.61579-4.5703-10.15656-10.1876-10.14713h-.5424l-12.088405.0283H.217468c.10848-.33479.264124-.65071.452784-.94305l.136779.00472L12.537 1.93284h.4811c6.1361-.00943 11.1215 4.95099 11.1309 11.09026.0094 6.1298-4.9476 11.1137-11.0791 11.1279l-.2405.0094-7.49925.0142c-1.32533.0047-2.39598 1.0845-2.39126 2.4095v.1367l.0283 12.8914-.00472.1981c-.33015-.0991-.64144-.2405-.93387-.4197zM38.0621.871619L38.1093 20.916v.2641c.0047 1.8484-1.4904 3.3525-3.344 3.3572h-.2594l-5.6598.0142-.434.0047c-3.4571.0047-6.2587 2.815-6.254 6.2712.0047 3.4563 2.8157 6.2572 6.2729 6.2524h.0094l.8018-.0047 10.4188-.0236.1604-.0047c-.1038.3301-.25.646-.434.9431l-.1367.0047-9.999.0236-.8065.0047c-3.9808.0047-7.2116-3.2111-7.221-7.186-.0094-3.975 3.2072-7.2096 7.1832-7.219l.3632.0094 5.707-.0141h.2877c1.3395-.0048 2.4242-1.0893 2.4195-2.4331l-.0047-.2452L37.133.433102l-.0142-.221615c.3302.10845.6462.259337.9386.452662l.0047.20747z" fill="#1B7892"/><path d="M36.1798.207045L36.227 20.9493l-.0048.2358c0 .811-.6556 1.4711-1.4668 1.4759l-.4764.0047-5.3296.0141-.4952.0094h-.0472c-4.4948.0142-8.1313 3.6638-8.1218 8.1621.0141 4.4936 3.6647 8.1291 8.1595 8.1196l.8018.0047 9.0651-.0188.2595-.0047c-.7405.6365-1.6886.9902-2.6649.9902h-.3443l-6.3154.0141h-.8018c-5.0419.0142-9.1358-4.0645-9.15-9.1051-.0141-5.0406 4.0656-9.1334 9.1076-9.1475h.3018l5.8626-.0142.184-.0094c.2688 0 .4858-.2169.4858-.4857l.0047-.2593L35.194.31078l-.0047-.278198c.2076-.033007.4198-.037722.6273-.028291.1226 0 .2453.004715.3632.014145v.188609zM12.9845 3.80939h-.698L0 3.83768v.97134h.245258L12.461 4.78073l.1415-.00472h.3443l.2358.00472c4.5656.09902 8.1879 3.88063 8.0888 8.44497-.099 4.4889-3.759 8.0772-8.2444 8.0866l-.1887.0094-6.90494.0142h-.65088c-2.91008 0-5.263614 2.3623-5.258897 5.2669l.023582 8.5864v.7262c.004716.9855.363171 1.9332 1.014045 2.6782l-.00943-.4762-.0283-11.392v-.1367c-.00472-2.3577 1.90075-4.2768 4.26372-4.2815l.50938-.0094 6.98982-.0189.2406-.0094c5.0985-.0141 9.2254-4.1541 9.2113-9.2513-.0094-5.09713-4.1552-9.22295-9.2538-9.20881z" fill="#1B7892"/><path d="M39.9999 35.1798h-.2028l-10.5131.0235-.8301-.0047c-2.4195.0047-4.3863-1.9568-4.391-4.3757-.0047-2.4189 1.9526-4.3804 4.3675-4.3899l.3018-.0094 5.5513-.0142.4953-.0047c2.8865-.0047 5.2164-2.3529 5.2117-5.2339l-.0472-17.06909c0-.95719-.3395-1.88609-.9527-2.62167l.0047.31592.0425 19.19574.0047.1037c.0047 2.4048-1.9385 4.3569-4.3439 4.3616l-.1934.0094-5.7353.0236-.3395.0094c-2.9384.0047-5.3155 2.3953-5.3108 5.3329.0047 2.9376 2.396 5.3141 5.3343 5.3094h.7924l10.6027-.0236h.1462l.0047-.9383z" fill="#1B7892"/></svg>