<svg width="21" height="21" viewBox="0 0 21 21" fill="none" xmlns="http://www.w3.org/2000/svg">
<path d="M5.75 7.01172L10.5833 7.01172V8.22005H5.75V7.01172Z" fill="#3B9FBE"/>
<path d="M5.75 4.5957L13 4.5957V5.80404L5.75 5.80404V4.5957Z" fill="#3B9FBE"/>
<path d="M5.75 2.17969L13 2.17969V3.38802L5.75 3.38802V2.17969Z" fill="#3B9FBE"/>
<path d="M3.7629 17.888L7.16496 11.8488L11.6563 15.7698C11.7921 15.8906 11.9534 15.9793 12.1281 16.0291C12.3029 16.079 12.4867 16.0887 12.6657 16.0577C12.8448 16.0267 13.0146 15.9557 13.1624 15.85C13.3103 15.7443 13.4323 15.6066 13.5196 15.4472L17.7306 9.16204L16.7271 8.489L12.4979 14.8013L12.4556 14.8636L7.96367 10.9425C7.82794 10.8224 7.66696 10.7343 7.49262 10.6847C7.31829 10.6351 7.13504 10.6254 6.95641 10.6561C6.77779 10.6868 6.60835 10.7573 6.46061 10.8623C6.31287 10.9673 6.1906 11.1041 6.10283 11.2627L3.33333 16.1861L3.33333 2.17969H2.125L2.125 17.888C2.12532 18.2084 2.25273 18.5156 2.47927 18.7421C2.7058 18.9686 3.01296 19.096 3.33333 19.0964L19.0417 19.0964V17.888L3.7629 17.888Z" fill="#3B9FBE"/>
</svg>
