<svg width="72" height="72" viewBox="0 0 72 72" fill="none" xmlns="http://www.w3.org/2000/svg">
<ellipse cx="36" cy="33" rx="23" ry="18" fill="#744B0E"/>
<rect x="9" y="36" width="10" height="10" rx="5" fill="#FFE8D1"/>
<rect x="53" y="36" width="10" height="10" rx="5" fill="#FFE8D1"/>
<rect x="14" y="21" width="44" height="38" rx="19" fill="#FFF0E1"/>
<path d="M22.5 30.7829C16.2391 30.7829 15.3043 31.7826 14 34L16 26.5L23.5 20L49 19.5C54 19.5 58.6261 37.0652 58 35.5C57.3739 33.9348 55.4339 32.2177 53.9991 30.7829C52.3034 32.8699 48.2357 36 41.3488 36C32.7401 36 30.3261 30.7829 22.5 30.7829Z" fill="#744B0E"/>
<circle cx="28" cy="41" r="2" fill="#576168"/>
<circle cx="46" cy="41" r="2" fill="#576168"/>
<path d="M34 49C34 50.2 34.8571 52 37 52C39.1429 52 40 50.2 40 49" stroke="#F86B82" stroke-linecap="round"/>
<ellipse cx="37" cy="43.5" rx="3" ry="1.5" fill="#ECD2B8"/>
</svg>
