<svg width="32" height="32" viewBox="0 0 32 32" fill="none" xmlns="http://www.w3.org/2000/svg"><mask id="a" fill="#fff"><path fill-rule="evenodd" clip-rule="evenodd" d="M16 32c8.8366 0 16-7.1634 16-16 0-8.83656-7.1634-16-16-16C7.16344 0 0 7.16344 0 16c0 8.8366 7.16344 16 16 16zm4.4-20c0 2.4301-1.9699 4.4-4.4 4.4-2.4301 0-4.4-1.9699-4.4-4.4 0-2.43005 1.9699-4.4 4.4-4.4 2.4301 0 4.4 1.96995 4.4 4.4zm1.6 0c0 3.0431-2.2654 5.557-5.2017 5.9474.0011.0174.0017.0349.0017.0526v6c0 .4418-.3582.8-.8.8s-.8-.3582-.8-.8v-6c0-.0177.0006-.0352.0017-.0526C12.2654 17.557 10 15.0431 10 12c0-3.31371 2.6863-6 6-6s6 2.68629 6 6zm-7.6 0c0-.8837.7163-1.6 1.6-1.6.4418 0 .8-.3582.8-.8 0-.44183-.3582-.8-.8-.8-1.7673 0-3.2 1.4327-3.2 3.2 0 .4418.3582.8.8.8s.8-.3582.8-.8z"/></mask><path fill-rule="evenodd" clip-rule="evenodd" d="M16 32c8.8366 0 16-7.1634 16-16 0-8.83656-7.1634-16-16-16C7.16344 0 0 7.16344 0 16c0 8.8366 7.16344 16 16 16zm4.4-20c0 2.4301-1.9699 4.4-4.4 4.4-2.4301 0-4.4-1.9699-4.4-4.4 0-2.43005 1.9699-4.4 4.4-4.4 2.4301 0 4.4 1.96995 4.4 4.4zm1.6 0c0 3.0431-2.2654 5.557-5.2017 5.9474.0011.0174.0017.0349.0017.0526v6c0 .4418-.3582.8-.8.8s-.8-.3582-.8-.8v-6c0-.0177.0006-.0352.0017-.0526C12.2654 17.557 10 15.0431 10 12c0-3.31371 2.6863-6 6-6s6 2.68629 6 6zm-7.6 0c0-.8837.7163-1.6 1.6-1.6.4418 0 .8-.3582.8-.8 0-.44183-.3582-.8-.8-.8-1.7673 0-3.2 1.4327-3.2 3.2 0 .4418.3582.8.8.8s.8-.3582.8-.8z" fill="#6ACFED"/><path d="M16.7983 17.9474l-.2109-1.5861-1.4828.1971.0971 1.4927 1.5966-.1037zM15.2 24h1.6-1.6zm0-6h-1.6 1.6zm.0017-.0526l1.5966.1037.0971-1.4927-1.4828-.1971-.2109 1.5861zM30.4 16c0 7.9529-6.4471 14.4-14.4 14.4v3.2c9.7202 0 17.6-7.8798 17.6-17.6h-3.2zM16 1.6c7.9529 0 14.4 6.4471 14.4 14.4h3.2c0-9.72021-7.8798-17.6-17.6-17.6v3.2zM1.6 16C1.6 8.0471 8.0471 1.6 16 1.6v-3.2C6.27979-1.6-1.6 6.27979-1.6 16h3.2zM16 30.4C8.0471 30.4 1.6 23.9529 1.6 16h-3.2c0 9.7202 7.87979 17.6 17.6 17.6v-3.2zM16 18c3.3137 0 6-2.6863 6-6h-3.2c0 1.5464-1.2536 2.8-2.8 2.8V18zm-6-6c0 3.3137 2.6863 6 6 6v-3.2c-1.5464 0-2.8-1.2536-2.8-2.8H10zm6-6c-3.3137 0-6 2.68629-6 6h3.2c0-1.5464 1.2536-2.8 2.8-2.8V6zm6 6c0-3.31371-2.6863-6-6-6v3.2c1.5464 0 2.8 1.2536 2.8 2.8H22zm-4.9909 7.5334C20.7301 19.0387 23.6 15.8558 23.6 12h-3.2c0 2.2303-1.6608 4.0753-3.8126 4.3613l.4217 3.1721zM18.4 18c0-.0524-.0017-.1046-.0051-.1564l-3.1932.2075c-.0011-.017-.0017-.034-.0017-.0511h3.2zm0 6v-6h-3.2v6h3.2zM16 26.4c1.3255 0 2.4-1.0745 2.4-2.4h-3.2c0-.4418.3582-.8.8-.8v3.2zM13.6 24c0 1.3255 1.0745 2.4 2.4 2.4v-3.2c.4418 0 .8.3582.8.8h-3.2zm0-6v6h3.2v-6h-3.2zm.0051-.1564c-.0034.0517-.0051.1039-.0051.1564h3.2c0 .0171-.0006.0342-.0017.0511l-3.1932-.2075zM8.4 12c0 3.8558 2.8699 7.0387 6.5909 7.5334l.4217-3.1721C13.2608 16.0753 11.6 14.2303 11.6 12H8.4zM16 4.4c-4.1974 0-7.6 3.40264-7.6 7.6h3.2c0-2.43005 1.9699-4.4 4.4-4.4V4.4zm7.6 7.6c0-4.19736-3.4026-7.6-7.6-7.6v3.2c2.4301 0 4.4 1.96995 4.4 4.4h3.2zM16 8.8c-1.7673 0-3.2 1.4327-3.2 3.2H16V8.8zm-.8.8c0-.44183.3582-.8.8-.8V12c1.3255 0 2.4-1.0745 2.4-2.4h-3.2zm.8.8c-.4418 0-.8-.3582-.8-.8h3.2c0-1.32548-1.0745-2.4-2.4-2.4v3.2zM14.4 12c0-.8837.7163-1.6 1.6-1.6V7.2c-2.651 0-4.8 2.14903-4.8 4.8h3.2zm-.8-.8c.4418 0 .8.3582.8.8h-3.2c0 1.3255 1.0745 2.4 2.4 2.4v-3.2zm-.8.8c0-.4418.3582-.8.8-.8v3.2c1.3255 0 2.4-1.0745 2.4-2.4h-3.2z" fill="#6ACFED" mask="url(#a)"/></svg>