<svg width="18" height="16" viewBox="0 0 18 16" fill="none" xmlns="http://www.w3.org/2000/svg">
<g clip-path="url(#clip0_703_3728)">
<path d="M16.6133 9.79982C16.3657 9.79982 16.165 9.97375 16.165 10.1883V13.638C16.1641 14.2815 15.5626 14.8029 14.8201 14.8035H2.24147C1.49898 14.8029 0.897462 14.2815 0.896587 13.638V3.51353C0.897462 2.87019 1.49898 2.34872 2.24147 2.34796H6.22182C6.46943 2.34796 6.67011 2.17404 6.67011 1.95944C6.67011 1.745 6.46943 1.57092 6.22182 1.57092H2.24147C1.00411 1.57214 0.00140092 2.44115 0 3.51353V13.6381C0.00140092 14.7105 1.00411 15.5795 2.24147 15.5807H14.8201C16.0575 15.5795 17.0602 14.7105 17.0616 13.6381V10.1883C17.0616 9.97375 16.8609 9.79982 16.6133 9.79982Z" fill="white"/>
<path d="M16.884 0.571239C16.0962 -0.111556 14.8189 -0.111556 14.0311 0.571239L6.03324 7.50269C5.97843 7.5502 5.93886 7.60908 5.91819 7.67373L4.86646 10.9645C4.8232 11.0994 4.86716 11.2439 4.98133 11.343C5.09568 11.4419 5.26239 11.48 5.41807 11.4427L9.21508 10.531C9.28967 10.5131 9.35762 10.4788 9.41243 10.4313L17.4101 3.49971C18.1967 2.81646 18.1967 1.71039 17.4101 1.02714L16.884 0.571239ZM7.01003 7.75523L13.5556 2.08222L15.6666 3.91176L9.12086 9.58477L7.01003 7.75523ZM6.58836 8.48856L8.27489 9.95037L5.94201 10.5105L6.58836 8.48856ZM16.7762 2.95032L16.3007 3.36237L14.1896 1.53268L14.6652 1.12063C15.1028 0.741369 15.8123 0.741369 16.25 1.12063L16.7762 1.57654C17.2131 1.95626 17.2131 2.57076 16.7762 2.95032Z" fill="white"/>
</g>
<defs>
<clipPath id="clip0_703_3728">
<path d="M0 0H14C16.2091 0 18 1.79086 18 4V11.6C18 13.8091 16.2091 15.6 14 15.6H0V0Z" fill="white"/>
</clipPath>
</defs>
</svg>
