<svg width="18" height="18" viewBox="0 0 18 18" fill="none" xmlns="http://www.w3.org/2000/svg">
<path d="M10.6826 12.1291C10.3751 12.1291 10.1201 11.8741 10.1201 11.5666V9.02409L9.97765 9.18909C9.76765 9.42159 9.41515 9.43659 9.18265 9.23409C8.95765 9.02409 8.93515 8.67159 9.14515 8.43909L10.2701 7.18659C10.4276 7.01409 10.6751 6.95409 10.8926 7.03659C11.1101 7.11909 11.2526 7.32909 11.2526 7.56159V11.5741C11.2451 11.8816 10.9976 12.1291 10.6826 12.1291V12.1291Z" fill="#3585BD"/>
<path d="M14.7676 5.51252C14.5801 5.26502 14.2276 5.21252 13.9801 5.40002C13.7326 5.58752 13.6801 5.94002 13.8676 6.18752C14.6776 7.26752 15.1051 8.5275 15.1051 9.8325C15.1051 13.2 12.3676 15.9375 9.00007 15.9375C5.63257 15.9375 2.89507 13.2 2.89507 9.8325C2.89507 6.46502 5.63257 3.73502 9.00007 3.73502C9.43507 3.73502 9.87757 3.78752 10.3576 3.90002C10.3801 3.90752 10.4026 3.90002 10.4251 3.90002C10.4476 3.90002 10.4626 3.91502 10.4776 3.91502C10.5001 3.91502 10.5151 3.90752 10.5376 3.90752C10.5601 3.90752 10.5826 3.90002 10.6126 3.89252C10.6576 3.88502 10.6951 3.86252 10.7326 3.84752C10.7551 3.83252 10.7776 3.82502 10.8001 3.81002C10.8076 3.80252 10.8226 3.80252 10.8301 3.79502C10.8526 3.78002 10.8601 3.75752 10.8751 3.74252C10.9051 3.71252 10.9276 3.69002 10.9501 3.65252C10.9726 3.62252 10.9801 3.58502 10.9951 3.54752C11.0026 3.52502 11.0176 3.50252 11.0251 3.48002C11.0251 3.46502 11.0251 3.45752 11.0251 3.44252C11.0326 3.40502 11.0326 3.36752 11.0251 3.33002C11.0251 3.29252 11.0251 3.26252 11.0176 3.22502C11.0101 3.19502 10.9951 3.16502 10.9801 3.12752C10.9651 3.09002 10.9501 3.05252 10.9276 3.02252C10.9276 3.01502 10.9276 3.00752 10.9201 3.00002L9.43507 1.14752C9.24007 0.907518 8.88757 0.862518 8.64757 1.05752C8.40757 1.25252 8.37007 1.60502 8.55757 1.84502L9.17257 2.61002C9.11257 2.61002 9.05257 2.60252 8.99257 2.60252C5.01007 2.60252 1.76257 5.84252 1.76257 9.8325C1.76257 13.8225 5.00257 17.0625 8.99257 17.0625C12.9826 17.0625 16.2226 13.8225 16.2226 9.8325C16.2301 8.28 15.7201 6.78752 14.7676 5.51252V5.51252Z" fill="#3585BD"/>
<path d="M5.668 11.964C5.692 11.988 5.728 12 5.764 12H6.298C6.358 12 6.412 11.97 6.46 11.904L7.186 10.956L7.906 11.904C7.948 11.97 8.002 12 8.068 12H8.62C8.656 12 8.686 11.988 8.71 11.964C8.734 11.94 8.752 11.904 8.752 11.868C8.752 11.832 8.74 11.802 8.716 11.766L7.684 10.404L8.644 9.114C8.668 9.084 8.68 9.048 8.68 9.006C8.68 8.976 8.668 8.946 8.644 8.922C8.62 8.898 8.59 8.88 8.554 8.88H8.044C7.984 8.88 7.942 8.898 7.918 8.928C7.894 8.964 7.876 8.982 7.876 8.982L7.21 9.876L6.538 8.982C6.514 8.952 6.49 8.928 6.472 8.91C6.448 8.892 6.412 8.88 6.37 8.88H5.842C5.806 8.88 5.77 8.898 5.746 8.922C5.722 8.946 5.71 8.976 5.71 9.012C5.71 9.048 5.722 9.084 5.746 9.114L6.694 10.398L5.668 11.766C5.644 11.802 5.632 11.832 5.632 11.868C5.632 11.904 5.644 11.94 5.668 11.964Z" fill="#3585BD"/>
</svg>
