<svg width="18" height="18" viewBox="0 0 18 18" fill="none" xmlns="http://www.w3.org/2000/svg">
<g clip-path="url(#clip0_690_690)">
<path d="M15.3754 6.57047L15.0224 6.92375C14.9748 6.9709 14.9277 7.01206 14.8807 7.05C15.2871 7.96037 15.5154 8.96742 15.5154 10.0272C15.5154 14.0672 12.2284 17.354 8.18822 17.354C4.14778 17.354 0.860837 14.0672 0.860837 10.0272C0.860837 5.98761 4.14781 2.70113 8.18822 2.70113C9.02979 2.70113 9.83769 2.84562 10.5912 3.10775V3.1075C10.6629 2.99345 10.7468 2.87986 10.8615 2.7643L11.0428 2.58272C10.1562 2.24255 9.1944 2.05432 8.18843 2.05432C3.7851 2.0546 0.214348 5.62427 0.214348 10.027C0.214348 14.4303 3.7851 18 8.18826 18C12.592 18 16.162 14.4303 16.162 10.027C16.1619 8.78883 15.8797 7.61609 15.3754 6.57047Z" fill="#3F98D1"/>
<path d="M13.0754 7.54409H12.3506C12.7193 8.21825 12.9292 8.99081 12.9292 9.81157C12.9292 12.4257 10.8023 14.5523 8.18822 14.5523C5.57393 14.5523 3.44708 12.4256 3.44708 9.81157C3.44704 7.19783 5.5739 5.07123 8.18822 5.07123C8.92306 5.07123 9.61972 5.23928 10.2411 5.53919V4.83097C9.60829 4.5699 8.91512 4.42477 8.18822 4.42477C5.21252 4.42477 2.80034 6.83674 2.80034 9.8116C2.80034 12.7865 5.21249 15.1988 8.18822 15.1988C11.1633 15.1988 13.5759 12.7865 13.5759 9.8116C13.5759 9.00128 13.3956 8.23347 13.0754 7.54409Z" fill="#3F98D1"/>
<path d="M17.7353 2.66464C17.6849 2.56687 17.6035 2.49853 17.5229 2.45732C17.4416 2.41573 17.3587 2.39622 17.2738 2.38747L15.7349 2.23397C15.7036 2.23162 15.6543 2.20996 15.6157 2.17055C15.5763 2.13195 15.5546 2.08266 15.5525 2.05137L15.3984 0.511878C15.3863 0.399343 15.3566 0.28744 15.2781 0.183272C15.2391 0.131803 15.1857 0.0838146 15.1212 0.0503809C15.0569 0.0169473 14.9827 -0.000209016 14.9129 1.92174e-06C14.823 0.000248016 14.7433 0.0254903 14.6762 0.0600138C14.6091 0.0951701 14.5521 0.14017 14.5006 0.191393L11.3946 3.29742C11.2684 3.42539 11.1785 3.5793 11.1095 3.7439C11.0422 3.90917 10.9965 4.08176 10.9952 4.26158V6.03539C10.9957 6.15693 11.027 6.27013 11.0782 6.37173L9.74171 7.7481C9.30869 7.42185 8.7722 7.22572 8.18826 7.22572C6.75975 7.22572 5.60223 8.38366 5.60223 9.8115C5.60223 11.2393 6.75975 12.3973 8.18826 12.3973C9.6161 12.3973 10.7743 11.2393 10.7743 9.8115C10.7743 9.20059 10.561 8.64002 10.2065 8.1974L11.5908 6.77213C11.6423 6.78306 11.695 6.7895 11.7498 6.78971H13.5247C13.7045 6.78844 13.8771 6.74298 14.0421 6.67566C14.207 6.6064 14.3609 6.51661 14.489 6.39037L17.5944 3.28518C17.6457 3.23372 17.6904 3.17673 17.7256 3.10944C17.7602 3.04232 17.7857 2.96262 17.7857 2.87301C17.7863 2.80333 17.7692 2.72898 17.7353 2.66464ZM8.18826 11.7511C7.11863 11.7511 6.24851 10.8812 6.24851 9.81174C6.24851 8.74253 7.11859 7.87242 8.18826 7.87242C8.59621 7.87242 8.97474 7.99975 9.28746 8.21579L7.9563 9.58681C7.83195 9.71478 7.83497 9.9195 7.96298 10.0438C8.09095 10.1682 8.29587 10.1651 8.42022 10.0371L9.75053 8.66737C9.9865 8.98852 10.1278 9.38336 10.1278 9.81167C10.1278 10.8812 9.25768 11.7511 8.18826 11.7511ZM11.6422 5.79172V4.26186C11.6409 4.20484 11.6643 4.09315 11.7074 3.99154C11.7483 3.88952 11.8109 3.79411 11.8523 3.75466L14.7808 0.826351L14.9097 2.11613C14.9187 2.20293 14.9435 2.28333 14.9766 2.35857L11.6422 5.79172ZM14.032 5.93362C13.9922 5.97478 13.8972 6.03715 13.7952 6.07853C13.6936 6.12163 13.5819 6.14497 13.5248 6.14371H12.2014L15.4358 2.81303C15.5091 2.84436 15.5865 2.86812 15.6708 2.87712L16.9599 3.00573L14.032 5.93362Z" fill="#3F98D1"/>
</g>
<defs>
<clipPath id="clip0_690_690">
<rect width="18" height="18" fill="white"/>
</clipPath>
</defs>
</svg>
