<svg width="25" height="24" viewBox="0 0 25 24" fill="none" xmlns="http://www.w3.org/2000/svg">
<path d="M6.50195 7.5L12.502 7.5V9H6.50195V7.5Z" fill="#576168"/>
<path d="M6.50195 4.5L15.502 4.5V6L6.50195 6V4.5Z" fill="#576168"/>
<path d="M6.50195 1.5L15.502 1.5V3L6.50195 3V1.5Z" fill="#576168"/>
<path d="M4.0352 21L8.25845 13.503L13.834 18.3705C14.0025 18.5205 14.2027 18.6305 14.4196 18.6924C14.6366 18.7543 14.8647 18.7664 15.087 18.7279C15.3093 18.6894 15.5201 18.6013 15.7036 18.4701C15.8871 18.3388 16.0386 18.1679 16.147 17.97L21.3745 10.1677L20.1287 9.33225L14.8787 17.1682L14.8262 17.2455L9.24995 12.378C9.08146 12.2289 8.88163 12.1195 8.66521 12.058C8.44879 11.9964 8.22131 11.9843 7.99957 12.0224C7.77783 12.0606 7.56749 12.1481 7.38409 12.2784C7.20069 12.4088 7.0489 12.5786 6.93995 12.7755L3.50195 18.8872L3.50195 1.5L2.00195 1.5L2.00195 21C2.00235 21.3977 2.16051 21.779 2.44173 22.0602C2.72295 22.3414 3.10425 22.4996 3.50195 22.5L23.002 22.5V21L4.0352 21Z" fill="#576168"/>
</svg>
