<svg width="45" height="40" viewBox="0 0 45 40" fill="none" xmlns="http://www.w3.org/2000/svg">
<rect x="0.5" y="0.5" width="44" height="39" rx="19.5" fill="#D5D7D9"/>
<g clip-path="url(#clip0_526_1360)">
<path d="M34.375 18.3738C34.3742 18.3732 34.3737 18.3725 34.3731 18.3719L24.1751 8.17425C23.7404 7.73937 23.1624 7.5 22.5477 7.5C21.933 7.5 21.355 7.73937 20.9202 8.17425L10.7275 18.3667C10.7241 18.3702 10.7204 18.3738 10.7172 18.3772C9.82455 19.275 9.82608 20.7317 10.7216 21.6272C11.1307 22.0365 11.6709 22.2734 12.2486 22.2984C12.2723 22.3006 12.2959 22.3018 12.3197 22.3018H12.726V29.8064C12.726 31.2917 13.9345 32.5 15.4198 32.5H19.4095C19.8141 32.5 20.142 32.1719 20.142 31.7676V25.8838C20.142 25.2061 20.6934 24.6549 21.3711 24.6549H23.7244C24.402 24.6549 24.9533 25.2061 24.9533 25.8838V31.7676C24.9533 32.1719 25.2811 32.5 25.6857 32.5H29.6755C31.1609 32.5 32.3692 31.2917 32.3692 29.8064V22.3018H32.7461C33.3607 22.3018 33.9386 22.0624 34.3737 21.6273C35.2701 20.7305 35.2705 19.2712 34.375 18.3738ZM33.3378 20.5917C33.1797 20.7498 32.9695 20.8369 32.7461 20.8369H31.6368C31.2322 20.8369 30.9044 21.1648 30.9044 21.5694V29.8064C30.9044 30.4839 30.3532 31.0352 29.6755 31.0352H26.4181V25.8838C26.4181 24.3985 25.2098 23.19 23.7244 23.19H21.3711C19.8856 23.19 18.6771 24.3985 18.6771 25.8838V31.0352H15.4198C14.7423 31.0352 14.1909 30.4839 14.1909 29.8064V21.5694C14.1909 21.1648 13.863 20.8369 13.4584 20.8369H12.3682C12.3567 20.8362 12.3455 20.8356 12.3339 20.8354C12.1157 20.8316 11.911 20.745 11.7576 20.5915C11.4315 20.2653 11.4315 19.7345 11.7576 19.4081C11.7578 19.4081 11.7578 19.408 11.758 19.4078L11.7586 19.4072L21.9562 9.20994C22.1142 9.05182 22.3242 8.96484 22.5477 8.96484C22.7711 8.96484 22.9811 9.05182 23.1392 9.20994L33.3345 19.4051C33.3361 19.4066 33.3378 19.4081 33.3393 19.4097C33.6637 19.7364 33.6632 20.2661 33.3378 20.5917Z" fill="white"/>
</g>
<rect x="0.5" y="0.5" width="44" height="39" rx="19.5" stroke="#D5D7D9"/>
<defs>
<clipPath id="clip0_526_1360">
<rect width="25" height="25" fill="white" transform="translate(10 7.5)"/>
</clipPath>
</defs>
</svg>
