<svg width="18" height="18" viewBox="0 0 18 18" fill="none" xmlns="http://www.w3.org/2000/svg">
<g clip-path="url(#clip0_1012_4886)">
<path d="M9 0C4.02571 0 0 4.02525 0 9C0 13.9742 4.02525 18 9 18C13.9743 18 18 13.9747 18 9C18 4.02571 13.9747 0 9 0ZM9 16.7442C4.72985 16.7442 1.25582 13.2702 1.25582 9C1.25582 4.72982 4.72985 1.25582 9 1.25582C13.2702 1.25582 16.7442 4.72982 16.7442 9C16.7442 13.2702 13.2702 16.7442 9 16.7442Z" fill="#3F98D1"/>
<path d="M8.73366 11.388C8.2361 11.388 7.83331 11.8026 7.83331 12.3001C7.83331 12.7859 8.22425 13.2124 8.73366 13.2124C9.24308 13.2124 9.64583 12.7859 9.64583 12.3001C9.64583 11.8026 9.2312 11.388 8.73366 11.388Z" fill="#3F98D1"/>
<path d="M8.88765 4.48134C7.28832 4.48134 6.55383 5.42912 6.55383 6.06882C6.55383 6.53084 6.94477 6.7441 7.26462 6.7441C7.90436 6.7441 7.64375 5.83187 8.8521 5.83187C9.44442 5.83187 9.91832 6.09251 9.91832 6.63747C9.91832 7.27717 9.25489 7.64442 8.86395 7.97612C8.52037 8.27224 8.07023 8.75799 8.07023 9.77682C8.07023 10.3928 8.23609 10.5705 8.72178 10.5705C9.30224 10.5705 9.42072 10.3099 9.42072 10.0848C9.42072 9.46878 9.43257 9.11339 10.0842 8.60397C10.404 8.35521 11.411 7.5496 11.411 6.43603C11.411 5.32245 10.404 4.48134 8.88765 4.48134Z" fill="#3F98D1"/>
</g>
<defs>
<clipPath id="clip0_1012_4886">
<rect width="18" height="18" fill="white"/>
</clipPath>
</defs>
</svg>
