<svg width="24" height="24" viewBox="0 0 24 24" fill="none" xmlns="http://www.w3.org/2000/svg"><circle cx="12" cy="12" r="11.4" stroke="#6ACFED" stroke-width="1.2"/><path fill-rule="evenodd" clip-rule="evenodd" d="M12 12.3c1.8225 0 3.3-1.4775 3.3-3.3 0-1.82254-1.4775-3.3-3.3-3.3-1.8225 0-3.3 1.47746-3.3 3.3 0 1.8225 1.4775 3.3 3.3 3.3zm.5987 1.1605C14.801 13.1677 16.5 11.2823 16.5 9c0-2.48528-2.0147-4.5-4.5-4.5-2.48528 0-4.5 2.01472-4.5 4.5 0 2.2823 1.69904 4.1677 3.9013 4.4605-.0009.0131-.0013.0262-.0013.0395V18c0 .3314.2686.6.6.6s.6-.2686.6-.6v-4.5c0-.0133-.0004-.0264-.0013-.0395zm-.5986-5.66051c-.6628 0-1.2.53726-1.2 1.2 0 .33137-.2687.6-.6.6-.3314 0-.60003-.26863-.60003-.6 0-1.32548 1.07453-2.4 2.40003-2.4.3313 0 .6.26863.6.6s-.2687.6-.6.6z" fill="#6ACFED"/></svg>