<svg width="56" height="56" viewBox="0 0 56 56" fill="none" xmlns="http://www.w3.org/2000/svg">
<path d="M5 36.1113H24V17.2842L17.871 11.1113H5V36.1113Z" fill="#FBFCFC" stroke="#6ACFED" stroke-width="2" stroke-linecap="round" stroke-linejoin="round"/>
<path d="M18 11.1113L21 14.1113L24 17.1113H18V11.1113Z" fill="#FBFCFC" stroke="#6ACFED" stroke-width="2" stroke-linecap="round" stroke-linejoin="round"/>
<path d="M13.584 31.1113C13.4907 31.1113 13.4113 31.0787 13.346 31.0133C13.2807 30.9387 13.248 30.8547 13.248 30.7613V22.8093H10.658C10.5647 22.8093 10.4853 22.7767 10.42 22.7113C10.3547 22.646 10.322 22.5573 10.322 22.4453V21.3673C10.322 21.2647 10.35 21.1807 10.406 21.1153C10.4713 21.0407 10.5553 21.0033 10.658 21.0033H17.812C17.9147 21.0033 17.9987 21.0407 18.064 21.1153C18.1293 21.1807 18.162 21.2647 18.162 21.3673V22.4453C18.162 22.5573 18.1293 22.646 18.064 22.7113C17.9987 22.7767 17.9147 22.8093 17.812 22.8093H15.236V30.7613C15.236 30.8547 15.2033 30.9387 15.138 31.0133C15.082 31.0787 15.0027 31.1113 14.9 31.1113H13.584Z" fill="#6ACFED"/>
<path d="M41.0586 13.6836L38.4013 18.2862L33.7987 15.6289" stroke="#FFC05C" stroke-width="2" stroke-linecap="round" stroke-linejoin="round"/>
<path fill-rule="evenodd" clip-rule="evenodd" d="M28.8953 28.9336L23.4844 33.2633H19.1562V39.7555H23.4844L28.8953 44.0836V28.9336Z" fill="#FBFCFC" stroke="#6ACFED" stroke-width="2" stroke-linejoin="round"/>
<path d="M34.1289 41.1539C34.3414 40.9914 34.5586 40.8383 34.7523 40.6445C37.1773 38.2195 37.1773 34.2867 34.7523 31.8633" stroke="#6ACFED" stroke-width="2" stroke-linecap="round" stroke-linejoin="round"/>
<path d="M38.5469 45.5605C38.7469 45.384 38.9516 45.2137 39.1438 45.0215C43.9922 40.1715 43.9922 32.309 39.1438 27.459" stroke="#6ACFED" stroke-width="2" stroke-linecap="round" stroke-linejoin="round"/>
<path d="M43.3477 50.3598C43.5445 50.1785 43.7523 50.0129 43.9445 49.8207C51.4445 42.3191 51.4445 30.1582 43.9445 22.6582" stroke="#6ACFED" stroke-width="2" stroke-linecap="round" stroke-linejoin="round"/>
<path d="M26 9.06986C29.5385 6.98521 36.1538 7.73005 38 17.1113" stroke="#FFC05C" stroke-width="2" stroke-linecap="round"/>
</svg>
