<svg width="24" height="24" viewBox="0 0 24 24" fill="none" xmlns="http://www.w3.org/2000/svg">
<path d="M10.1985 4L4 5.23971L5.87893 7.11864C4.78935 8.477 4.11622 10.1816 4.11622 12.0581C4.11622 16.4431 7.6707 20 12.0581 20C16.4455 20 20 16.4431 20 12.0581C20 8.76998 18.0048 5.94189 15.1574 4.73608V6.65375C17.0339 7.73123 18.2954 9.74092 18.2954 12.0581C18.2954 15.5061 15.5061 18.2954 12.0581 18.2954C8.61017 18.2954 5.82082 15.5061 5.82082 12.0581C5.82082 10.6489 6.29056 9.3632 7.0799 8.31961L8.95884 10.1985L10.1985 4Z" fill="white"/>
</svg>
