<svg width="21" height="20" viewBox="0 0 21 20" fill="none" xmlns="http://www.w3.org/2000/svg">
<circle cx="10.5" cy="10" r="9.5" stroke="#D5D7D9"/>
<path d="M9.9375 15.7031C9.76042 15.526 9.67188 15.3125 9.67188 15.0625C9.67188 14.8125 9.76042 14.599 9.9375 14.4219C10.1146 14.2448 10.3281 14.1562 10.5781 14.1562C10.8281 14.1562 11.0417 14.2448 11.2188 14.4219C11.3958 14.599 11.4844 14.8125 11.4844 15.0625C11.4844 15.3125 11.3958 15.526 11.2188 15.7031C11.0417 15.8802 10.8281 15.9688 10.5781 15.9688C10.3281 15.9688 10.1146 15.8802 9.9375 15.7031ZM10.25 13.2812C10.1458 13.2812 10.0573 13.25 9.98438 13.1875C9.92188 13.125 9.89062 13.0365 9.89062 12.9219V12.2656C9.89062 11.724 10.0312 11.2396 10.3125 10.8125C10.5417 10.4688 10.9323 10.0052 11.4844 9.42188C11.9219 8.95312 12.2083 8.63542 12.3438 8.46875C12.4688 8.30208 12.5781 8.01042 12.6719 7.59375C12.6823 7.55208 12.6875 7.48438 12.6875 7.39062C12.6875 6.88021 12.4792 6.47917 12.0625 6.1875C11.6458 5.89583 11.1406 5.75 10.5469 5.75C9.94271 5.75 9.4375 5.90625 9.03125 6.21875C8.63542 6.52083 8.36979 7.03125 8.23438 7.75C8.19271 7.97917 8.05208 8.09375 7.8125 8.09375H7.15625C7.0625 8.09375 6.97917 8.0625 6.90625 8C6.84375 7.9375 6.8125 7.85417 6.8125 7.75C6.83333 7.16667 7 6.625 7.3125 6.125C7.625 5.625 8.06771 5.22917 8.64062 4.9375C9.21354 4.64583 9.86458 4.5 10.5938 4.5C11.375 4.5 12.0312 4.63542 12.5625 4.90625C13.1042 5.16667 13.5 5.51562 13.75 5.95312C14.0104 6.38021 14.1406 6.83333 14.1406 7.3125C14.1406 7.85417 14.0156 8.32292 13.7656 8.71875C13.526 9.11458 13.1615 9.57292 12.6719 10.0938C12.2656 10.5312 11.9583 10.901 11.75 11.2031C11.5417 11.526 11.4271 11.8646 11.4062 12.2188C11.3958 12.5208 11.3854 12.7448 11.375 12.8906C11.3438 13.151 11.2083 13.2812 10.9688 13.2812H10.25Z" fill="#D5D7D9"/>
</svg>
