<svg width="40" height="40" viewBox="0 0 40 40" fill="none" xmlns="http://www.w3.org/2000/svg">
<path d="M16.8879 15.5882H13.473C14.3191 14.2878 15.5628 13.2958 17.0187 12.7598C18.4745 12.2238 20.0646 12.1727 21.5519 12.614C23.0392 13.0554 24.3441 13.9655 25.272 15.2088C26.1999 16.4522 26.7011 17.962 26.701 19.5134H28.0094C28.0112 17.7638 27.4734 16.0561 26.4691 14.6233C25.4648 13.1905 24.0431 12.1024 22.3978 11.5072C20.7524 10.912 18.9636 10.8388 17.2751 11.2975C15.5866 11.7562 14.0807 12.7245 12.9627 14.0704V11.663H11.6543V16.8966H16.8879V15.5882Z" fill="#3B9FBE"/>
<path d="M22.1215 23.4389H25.5365C24.6903 24.7393 23.4467 25.7314 21.9908 26.2673C20.5349 26.8033 18.9448 26.8544 17.4575 26.4131C15.9702 25.9717 14.6654 25.0616 13.7375 23.8183C12.8096 22.575 12.3083 21.0651 12.3084 19.5137H11C10.9982 21.2634 11.5361 22.971 12.5404 24.4038C13.5446 25.8366 14.9663 26.9247 16.6117 27.5199C18.257 28.1151 20.0459 28.1883 21.7344 27.7296C23.4228 27.2709 24.9287 26.3026 26.0467 24.9567V27.3641H27.3552V22.1305H22.1215V23.4389Z" fill="#3B9FBE"/>
</svg>
