<svg width="56" height="56" viewBox="0 0 56 56" fill="none" xmlns="http://www.w3.org/2000/svg">
<path d="M2 38.766H17.1679L18.8029 46L24.1168 26L29.8394 44.7234L36.7883 31.5319L40.8759 38.766H54" stroke="#D5D7D9" stroke-linecap="round" stroke-linejoin="round" stroke-dasharray="2 2"/>
<path d="M2 38.7234H13.4891L15.9416 33.0638L23.2993 43.5745L30.2482 27L39.6496 46L44.9635 38.7234H54" stroke="#D5D7D9" stroke-width="2" stroke-linecap="round" stroke-linejoin="round"/>
<path d="M34 16.5C34 21.1944 37.8056 25 42.5 25C47.1944 25 51 21.1944 51 16.5C51 11.8056 47.1944 8 42.5 8" stroke="#D5D7D9" stroke-width="2" stroke-linecap="round"/>
<path d="M42.5 12L43.5103 15.1094L46.7798 15.1094L44.1347 17.0312L45.145 20.1406L42.5 18.2188L39.855 20.1406L40.8653 17.0312L38.2202 15.1094H41.4897L42.5 12Z" fill="#D5D7D9"/>
</svg>
