<svg width="136" height="136" viewBox="0 0 136 136" fill="none" xmlns="http://www.w3.org/2000/svg">
<circle cx="68" cy="68" r="64" stroke="#EAEBEC" stroke-width="8"/>
<path fill-rule="evenodd" clip-rule="evenodd" d="M68 8C36.2073 8 10.19 32.7275 8.13127 63.9992C7.98615 66.2036 6.20914 68 4 68C1.79086 68 -0.0122262 66.205 0.115716 63.9996C2.18638 28.3063 31.7875 0 68 0C104.212 0 133.814 28.3063 135.884 63.9996C136.012 66.2051 134.209 68 132 68C129.791 68 128.014 66.2036 127.869 63.9992C125.81 32.7275 99.7927 8 68 8Z" fill="url(#paint0_linear)"/>
<circle cx="69" cy="72" r="10" fill="#969CA0"/>
<g filter="url(#filter0_d)">
<path d="M101.187 14.3491C101.93 13.2631 103.485 14.1609 102.917 15.3478L74.847 73.9272C73.226 77.31 69.2336 78.7061 66.196 76.9523C63.1584 75.1986 62.3713 71.043 64.4904 67.9478L101.187 14.3491Z" fill="#C4C4C4"/>
</g>
<path d="M52.4555 112C52.3528 112 52.2688 111.967 52.2035 111.902C52.1381 111.827 52.1055 111.739 52.1055 111.636V102.27C52.1055 102.158 52.1381 102.069 52.2035 102.004C52.2688 101.929 52.3528 101.892 52.4555 101.892H54.3735C54.4761 101.892 54.5601 101.929 54.6255 102.004C54.7001 102.069 54.7375 102.158 54.7375 102.27V105.686H58.0415V102.27C58.0415 102.158 58.0741 102.069 58.1395 102.004C58.2141 101.929 58.3028 101.892 58.4055 101.892H60.3095C60.4121 101.892 60.4961 101.929 60.5615 102.004C60.6361 102.069 60.6735 102.158 60.6735 102.27V111.636C60.6735 111.739 60.6361 111.827 60.5615 111.902C60.4961 111.967 60.4121 112 60.3095 112H58.4055C58.3028 112 58.2141 111.967 58.1395 111.902C58.0741 111.827 58.0415 111.739 58.0415 111.636V108.094H54.7375V111.636C54.7375 111.739 54.7001 111.827 54.6255 111.902C54.5601 111.967 54.4761 112 54.3735 112H52.4555ZM64.9441 104.734C65.2614 104.715 65.4248 104.79 65.4341 104.958V111.678C65.4341 111.753 65.3874 111.827 65.2941 111.902C65.2008 111.967 65.0608 112 64.8741 112H63.8101C63.6888 112.009 63.5581 111.986 63.4181 111.93C63.3248 111.865 63.2781 111.79 63.2781 111.706V105.014C63.2688 104.827 63.4461 104.734 63.8101 104.734H64.9441ZM64.3561 103.67C64.0201 103.67 63.7354 103.553 63.5021 103.32C63.2688 103.077 63.1521 102.788 63.1521 102.452C63.1521 102.116 63.2688 101.831 63.5021 101.598C63.7354 101.365 64.0201 101.248 64.3561 101.248C64.6921 101.248 64.9768 101.365 65.2101 101.598C65.4434 101.831 65.5601 102.116 65.5601 102.452C65.5601 102.788 65.4434 103.073 65.2101 103.306C64.9768 103.539 64.6921 103.661 64.3561 103.67ZM69.3407 114.646C68.7807 114.357 68.3793 114.021 68.1367 113.638C67.894 113.265 67.7727 112.952 67.7727 112.7C67.7727 112.607 67.81 112.527 67.8847 112.462C67.9593 112.397 68.0433 112.364 68.1367 112.364H70.0127C70.106 112.364 70.1807 112.383 70.2367 112.42C70.2927 112.467 70.344 112.541 70.3907 112.644C70.484 112.859 70.6053 113.022 70.7547 113.134C70.904 113.246 71.1373 113.302 71.4547 113.302C71.856 113.302 72.1547 113.199 72.3507 112.994C72.5467 112.798 72.6447 112.467 72.6447 112V110.838C72.15 111.351 71.4733 111.608 70.6147 111.608C69.672 111.608 68.9487 111.337 68.4447 110.796C67.95 110.245 67.6793 109.438 67.6327 108.374L67.6187 107.996C67.6187 106.857 67.8707 105.966 68.3747 105.322C68.888 104.678 69.6347 104.356 70.6147 104.356C71.0907 104.356 71.5107 104.449 71.8747 104.636C72.2387 104.813 72.542 105.056 72.7847 105.364V104.874C72.7847 104.771 72.8173 104.687 72.8827 104.622C72.948 104.547 73.032 104.51 73.1347 104.51H74.8427C74.9453 104.51 75.0293 104.547 75.0947 104.622C75.1693 104.687 75.2067 104.771 75.2067 104.874V111.804C75.2067 112.868 74.8847 113.68 74.2407 114.24C73.5967 114.8 72.6913 115.08 71.5247 115.08C70.6287 115.08 69.9007 114.935 69.3407 114.646ZM72.4487 109.102C72.57 108.803 72.6167 108.435 72.5887 107.996C72.57 107.781 72.5467 107.618 72.5187 107.506C72.3413 106.881 72.01 106.503 71.5247 106.372C71.2913 106.307 71.0533 106.316 70.8107 106.4C70.568 106.475 70.372 106.596 70.2227 106.764C70.008 107.007 69.8773 107.399 69.8307 107.94C69.8213 107.987 69.8167 108.047 69.8167 108.122C69.798 108.915 69.9847 109.457 70.3767 109.746C70.5913 109.914 70.8667 109.993 71.2027 109.984C71.5573 109.984 71.8467 109.886 72.0707 109.69C72.2107 109.559 72.3367 109.363 72.4487 109.102ZM77.8484 112C77.7551 112 77.6711 111.967 77.5964 111.902C77.5217 111.837 77.4844 111.753 77.4844 111.65V102.186C77.4844 102.083 77.5171 101.999 77.5824 101.934C77.6571 101.869 77.7457 101.836 77.8484 101.836H79.7524C79.8551 101.836 79.9391 101.869 80.0044 101.934C80.0791 101.999 80.1164 102.083 80.1164 102.186V105.532C80.6577 104.897 81.3857 104.58 82.3004 104.58C82.8324 104.58 83.3131 104.701 83.7424 104.944C84.1811 105.187 84.5217 105.546 84.7644 106.022C85.0071 106.498 85.1284 107.072 85.1284 107.744V111.65C85.1284 111.753 85.0911 111.837 85.0164 111.902C84.9511 111.967 84.8671 112 84.7644 112H82.8604C82.7671 112 82.6831 111.967 82.6084 111.902C82.5337 111.827 82.4964 111.743 82.4964 111.65V107.828C82.4964 107.417 82.3937 107.1 82.1884 106.876C81.9831 106.643 81.6937 106.526 81.3204 106.526C80.9377 106.526 80.6391 106.643 80.4244 106.876C80.2191 107.1 80.1164 107.417 80.1164 107.828V111.65C80.1164 111.753 80.0791 111.837 80.0044 111.902C79.9391 111.967 79.8551 112 79.7524 112H77.8484Z" fill="#576168"/>
<defs>
<filter id="filter0_d" x="53" y="2.99609" width="62.7401" height="84.9563" filterUnits="userSpaceOnUse" color-interpolation-filters="sRGB">
<feFlood flood-opacity="0" result="BackgroundImageFix"/>
<feColorMatrix in="SourceAlpha" type="matrix" values="0 0 0 0 0 0 0 0 0 0 0 0 0 0 0 0 0 0 127 0"/>
<feOffset/>
<feGaussianBlur stdDeviation="4"/>
<feColorMatrix type="matrix" values="0 0 0 0 0.176471 0 0 0 0 0.223529 0 0 0 0 0.258824 0 0 0 0.2 0"/>
<feBlend mode="normal" in2="BackgroundImageFix" result="effect1_dropShadow"/>
<feBlend mode="normal" in="SourceGraphic" in2="effect1_dropShadow" result="shape"/>
</filter>
<linearGradient id="paint0_linear" x1="136" y1="43.5" x2="6.90138e-07" y2="43" gradientUnits="userSpaceOnUse">
<stop stop-color="#6ACFED"/>
<stop offset="0.302487" stop-color="#2CC895"/>
<stop offset="0.724713" stop-color="#FFC05C"/>
<stop offset="1" stop-color="#EA4B65"/>
</linearGradient>
</defs>
</svg>
