<svg width="136" height="136" viewBox="0 0 136 136" fill="none" xmlns="http://www.w3.org/2000/svg">
<circle cx="68" cy="68" r="64" stroke="#EAEBEC" stroke-width="8"/>
<path fill-rule="evenodd" clip-rule="evenodd" d="M68 8C36.2073 8 10.19 32.7275 8.13127 63.9992C7.98615 66.2036 6.20914 68 4 68C1.79086 68 -0.0122262 66.205 0.115716 63.9996C2.18638 28.3063 31.7875 0 68 0C104.212 0 133.814 28.3063 135.884 63.9996C136.012 66.2051 134.209 68 132 68C129.791 68 128.014 66.2036 127.869 63.9992C125.81 32.7275 99.7927 8 68 8Z" fill="url(#paint0_linear)"/>
<circle cx="69" cy="72" r="10" fill="#969CA0"/>
<path d="M23.7098 89.6516C23.6742 89.5653 23.6768 89.4734 23.7174 89.3759C23.7615 89.2871 23.8267 89.2249 23.913 89.1893L32.6637 85.5846C32.7672 85.5419 32.8616 85.5384 32.9469 85.5739C33.0358 85.618 33.098 85.6833 33.1335 85.7696L33.8961 87.6207C33.9352 87.7156 33.937 87.8057 33.9014 87.891C33.8659 87.9763 33.7964 88.0403 33.6928 88.0829L24.9422 91.6876C24.8559 91.7232 24.7658 91.725 24.6719 91.693C24.5779 91.6611 24.5114 91.5976 24.4723 91.5027L23.7098 89.6516Z" fill="#576168"/>
<path d="M26.9593 96.3129C26.9081 96.2348 26.8894 96.1466 26.9032 96.0484C26.9298 95.9528 26.9822 95.8794 27.0603 95.8283L32.5647 92.2231C32.6506 92.1668 32.7387 92.1481 32.8292 92.167C32.9248 92.1936 32.9981 92.246 33.0493 92.3241L33.9928 93.7646C34.049 93.8505 34.0677 93.9386 34.0488 94.0291C34.03 94.1195 33.9776 94.1929 33.8917 94.2491L33.4467 94.5406C33.8424 94.5827 34.2258 94.7165 34.5967 94.9422C34.9727 95.1756 35.3014 95.5071 35.5827 95.9365C35.8741 96.3815 36.0309 96.8423 36.0529 97.3188C36.08 97.8031 35.9584 98.2732 35.6881 98.7292C35.4228 99.193 35.0091 99.6091 34.447 99.9772L31.1795 102.117C31.1014 102.169 31.0132 102.187 30.915 102.173C30.8245 102.155 30.7512 102.102 30.6949 102.016L29.6747 100.459C29.6185 100.373 29.5972 100.281 29.611 100.183C29.6298 100.092 29.6822 100.019 29.7681 99.9625L32.9653 97.8684C33.3167 97.6382 33.5298 97.3759 33.6046 97.0814C33.6846 96.7947 33.6198 96.4913 33.4101 96.1712C33.2056 95.8589 32.9469 95.6769 32.6341 95.6251C32.3291 95.5683 32.0048 95.6524 31.6613 95.8774L28.464 97.9715C28.386 98.0227 28.2978 98.0414 28.1995 98.0276C28.1091 98.0088 28.0357 97.9564 27.9795 97.8705L26.9593 96.3129Z" fill="#576168"/>
<path d="M35.9241 103.419L37.7579 101.59L36.9768 100.807C36.9109 100.741 36.8747 100.658 36.8683 100.559C36.875 100.461 36.9114 100.378 36.9775 100.312L37.8299 99.4619C37.9026 99.3894 37.9852 99.3532 38.0776 99.3533C38.1766 99.36 38.259 99.3964 38.3249 99.4625L39.106 100.246L40.7415 98.6143C40.8142 98.5418 40.8967 98.5056 40.9891 98.5057C41.0881 98.5125 41.1706 98.5489 41.2365 98.6149L42.4525 99.8342C42.525 99.9068 42.5612 99.9894 42.5611 100.082C42.561 100.174 42.5246 100.257 42.4519 100.329L40.8164 101.96L42.0522 103.199C42.1247 103.272 42.1609 103.355 42.1608 103.447C42.1672 103.546 42.1341 103.632 42.0614 103.704L41.209 104.555C41.1363 104.627 41.0504 104.66 40.9515 104.653C40.8591 104.653 40.7766 104.617 40.7041 104.544L39.4683 103.305L37.7832 104.986C37.5519 105.216 37.4196 105.434 37.3864 105.639C37.3531 105.843 37.432 106.041 37.6232 106.233L38.4042 107.016C38.4767 107.089 38.5096 107.174 38.5029 107.273C38.5028 107.366 38.4664 107.448 38.3937 107.521L37.4817 108.43C37.4157 108.496 37.3331 108.532 37.2341 108.539C37.1417 108.539 37.0593 108.502 36.9868 108.43L36.0475 107.488C34.6502 106.087 34.6091 104.731 35.9241 103.419Z" fill="#576168"/>
<path d="M42.8011 112.766C41.8502 112.139 41.2688 111.393 41.0569 110.527C40.8501 109.653 41.0598 108.724 41.686 107.739L41.9247 107.377C42.5669 106.47 43.3327 105.935 44.2223 105.772C45.1119 105.609 46.0204 105.833 46.948 106.444C47.6183 106.886 48.0936 107.395 48.3737 107.97C48.6668 108.543 48.7698 109.142 48.6827 109.766C48.6085 110.388 48.3737 110.999 47.9784 111.599L47.7859 111.891C47.7294 111.977 47.6494 112.031 47.546 112.052C47.4555 112.071 47.3674 112.052 47.2816 111.995L43.5754 109.554L43.5292 109.624C43.306 109.98 43.2004 110.318 43.2125 110.639C43.2298 110.952 43.3826 111.204 43.671 111.394C43.8581 111.517 44.0293 111.58 44.1846 111.581C44.3529 111.58 44.5262 111.555 44.7045 111.505C44.826 111.473 44.9114 111.462 44.9606 111.472C45.0228 111.48 45.1006 111.514 45.1942 111.576L46.7258 112.585C46.7959 112.631 46.839 112.693 46.8549 112.77C46.8838 112.845 46.8777 112.914 46.8367 112.976C46.7032 113.179 46.4297 113.339 46.0162 113.458C45.6104 113.582 45.1212 113.595 44.5486 113.497C43.9838 113.405 43.4013 113.161 42.8011 112.766ZM46.2199 109.586L46.2353 109.562C46.4817 109.188 46.5898 108.846 46.5596 108.536C46.5346 108.217 46.374 107.961 46.0778 107.766C45.7816 107.57 45.4823 107.524 45.18 107.627C44.8907 107.727 44.6228 107.964 44.3763 108.338L44.3609 108.361L46.2199 109.586Z" fill="#576168"/>
<path d="M49.8618 116.324C49.775 116.29 49.709 116.229 49.6638 116.14C49.6306 116.047 49.6313 115.957 49.6657 115.87L52.0903 109.768C52.1282 109.672 52.1896 109.606 52.2745 109.57C52.3627 109.525 52.4546 109.521 52.55 109.559L54.1373 110.19C54.2327 110.227 54.297 110.293 54.3301 110.387C54.3754 110.475 54.3791 110.567 54.3411 110.662L54.1447 111.157C54.4944 110.984 54.8573 110.892 55.2334 110.881C55.6216 110.865 56.0151 110.936 56.4141 111.094L56.9996 111.327C57.095 111.365 57.161 111.426 57.1976 111.511C57.2342 111.596 57.2335 111.686 57.1956 111.781L56.6321 113.2C56.5977 113.286 56.5363 113.352 56.448 113.398C56.3632 113.434 56.273 113.433 56.1776 113.396L54.8636 112.873C54.5166 112.736 54.2098 112.724 53.9432 112.839C53.6852 112.958 53.4873 113.19 53.3494 113.537L52.0467 116.816C52.0087 116.911 51.943 116.976 51.8495 117.009C51.7647 117.045 51.6746 117.045 51.5791 117.007L49.8618 116.324Z" fill="#576168"/>
<path d="M58.5593 119.24C58.4668 119.227 58.3881 119.184 58.323 119.109C58.2684 119.026 58.2474 118.938 58.2601 118.846L59.1532 112.327C59.1672 112.225 59.2109 112.146 59.2845 112.09C59.3674 112.036 59.455 112.015 59.5475 112.028L61.1565 112.248C61.2582 112.262 61.337 112.306 61.3928 112.379C61.4487 112.453 61.4696 112.541 61.4557 112.642L61.3911 113.114C61.6498 112.876 61.9675 112.689 62.3442 112.552C62.7209 112.415 63.1312 112.377 63.575 112.438C64.5922 112.577 65.2359 113.071 65.5061 113.918C65.7761 113.597 66.1252 113.353 66.5532 113.185C66.9812 113.018 67.4218 112.965 67.8749 113.027C68.6331 113.131 69.2126 113.474 69.6132 114.057C70.0244 114.631 70.1603 115.427 70.0209 116.444L69.4812 120.383C69.4686 120.476 69.4248 120.555 69.3499 120.62C69.2763 120.675 69.1887 120.696 69.087 120.683L67.3809 120.449C67.2792 120.435 67.1958 120.39 67.1307 120.316C67.0748 120.242 67.0538 120.154 67.0678 120.053L67.5942 116.21C67.6525 115.785 67.6024 115.463 67.4441 115.243C67.2963 115.016 67.0698 114.881 66.7646 114.839C66.478 114.8 66.2282 114.869 66.0154 115.047C65.8131 115.218 65.6829 115.515 65.6246 115.941L65.0982 119.783C65.0855 119.875 65.0417 119.954 64.9669 120.019C64.8933 120.075 64.8056 120.096 64.7039 120.082L62.9979 119.848C62.8961 119.834 62.8127 119.79 62.7476 119.715C62.6918 119.641 62.6708 119.554 62.6847 119.452L63.2111 115.61C63.2694 115.185 63.2194 114.862 63.061 114.643C62.904 114.414 62.6775 114.279 62.3816 114.239C62.0949 114.199 61.8452 114.269 61.6324 114.447C61.4208 114.616 61.2866 114.908 61.2296 115.324L60.7013 119.18C60.6886 119.273 60.6448 119.352 60.57 119.417C60.4964 119.473 60.4087 119.494 60.307 119.48L58.5593 119.24Z" fill="#576168"/>
<path d="M76.1513 119.835C75.0221 119.981 74.0946 119.796 73.3688 119.278C72.6419 118.751 72.1944 117.91 72.0262 116.755L71.9706 116.325C71.8652 115.218 72.0964 114.313 72.6641 113.609C73.2318 112.905 74.0665 112.482 75.168 112.34C75.964 112.237 76.656 112.312 77.244 112.565C77.8401 112.808 78.3089 113.195 78.6503 113.725C78.9998 114.244 79.2206 114.86 79.3128 115.573L79.3577 115.92C79.3709 116.022 79.3452 116.115 79.2807 116.198C79.2243 116.271 79.1452 116.314 79.0434 116.328L74.642 116.897L74.6528 116.98C74.7159 117.395 74.8568 117.721 75.0754 117.956C75.2929 118.182 75.5728 118.273 75.9153 118.228C76.1375 118.2 76.3079 118.135 76.4268 118.035C76.5536 117.925 76.6683 117.792 76.7706 117.638C76.842 117.535 76.8996 117.471 76.9435 117.446C76.9954 117.411 77.0769 117.387 77.188 117.372L79.0069 117.137C79.0902 117.126 79.1632 117.145 79.2259 117.193C79.2967 117.231 79.3369 117.287 79.3464 117.361C79.3776 117.602 79.2752 117.902 79.0394 118.262C78.8129 118.621 78.4508 118.95 77.9531 119.25C77.4647 119.548 76.8641 119.743 76.1513 119.835ZM76.6665 115.195L76.6629 115.167C76.6055 114.723 76.464 114.393 76.2385 114.178C76.0118 113.953 75.7226 113.863 75.3708 113.909C75.0191 113.954 74.7622 114.114 74.6001 114.389C74.4461 114.654 74.3979 115.008 74.4553 115.453L74.4589 115.481L76.6665 115.195Z" fill="#576168"/>
<path d="M86.2219 117.239C85.3731 117.554 84.6047 117.536 83.9165 117.184C83.2371 116.829 82.6964 116.164 82.2943 115.188L82.1106 114.733L81.9483 114.256C81.6399 113.345 81.6327 112.521 81.9268 111.785C82.2154 111.061 82.7796 110.542 83.6196 110.231C84.4508 109.922 85.1696 109.914 85.7761 110.206L84.6601 107.201C84.6244 107.105 84.6257 107.015 84.6643 106.931C84.7115 106.843 84.7789 106.783 84.8664 106.751L86.5594 106.122C86.6557 106.087 86.7458 106.088 86.8298 106.126C86.9225 106.162 86.9868 106.227 87.0225 106.324L90.3168 115.196C90.3525 115.292 90.3467 115.384 90.2995 115.471C90.261 115.555 90.1936 115.615 90.0974 115.651L88.5355 116.231C88.448 116.263 88.3579 116.262 88.2652 116.226C88.1779 116.179 88.1181 116.112 88.0856 116.024L87.9345 115.617C87.6765 116.37 87.1056 116.911 86.2219 117.239ZM86.9125 113.951C86.9223 113.629 86.8394 113.271 86.6637 112.879C86.5682 112.675 86.4879 112.526 86.4226 112.43C86.0387 111.906 85.5965 111.667 85.0961 111.713C84.8546 111.733 84.6347 111.825 84.4365 111.988C84.235 112.143 84.0934 112.325 84.0119 112.534C83.8952 112.836 83.9107 113.254 84.0587 113.786C84.0629 113.824 84.078 113.878 84.104 113.948C84.3747 114.704 84.7381 115.147 85.1943 115.276C85.4628 115.355 85.7501 115.338 86.0563 115.225C86.3856 115.092 86.6211 114.895 86.7629 114.634C86.8486 114.463 86.8985 114.235 86.9125 113.951Z" fill="#576168"/>
<path d="M91.3505 106.433C91.6123 106.252 91.7907 106.232 91.8857 106.371L95.3674 112.118C95.4061 112.182 95.4048 112.27 95.3637 112.382C95.3177 112.487 95.2149 112.587 95.0552 112.684L94.1452 113.235C94.0462 113.306 93.9224 113.354 93.7736 113.378C93.6599 113.371 93.5813 113.331 93.5378 113.259L90.0707 107.536C89.966 107.381 90.0693 107.209 90.3806 107.02L91.3505 106.433ZM90.2964 105.827C90.009 106.002 89.705 106.049 89.3846 105.971C89.0593 105.884 88.8096 105.697 88.6355 105.409C88.4614 105.122 88.4137 104.818 88.4924 104.498C88.5711 104.177 88.7541 103.93 89.0415 103.756C89.3289 103.582 89.6328 103.534 89.9533 103.613C90.2737 103.691 90.521 103.874 90.6951 104.162C90.8692 104.449 90.9169 104.753 90.8382 105.074C90.7595 105.394 90.5789 105.645 90.2964 105.827Z" fill="#576168"/>
<path d="M101.776 107.759C101.104 108.365 100.383 108.632 99.6136 108.559C98.8511 108.48 98.1029 108.061 97.3689 107.303L97.0304 106.949L96.7033 106.565C96.031 105.764 95.6948 104.98 95.6948 104.213C95.6892 103.426 96.0191 102.733 96.6846 102.133C97.3084 101.57 98.0019 101.322 98.7651 101.388L98.4932 101.086C98.4245 101.01 98.3925 100.926 98.3973 100.834C98.409 100.735 98.4495 100.655 98.5188 100.592L99.8601 99.3828C99.9363 99.314 100.021 99.282 100.113 99.2868C100.212 99.2853 100.296 99.3227 100.365 99.399L104.827 104.348C104.896 104.424 104.925 104.512 104.913 104.61C104.908 104.703 104.868 104.783 104.791 104.852L103.554 105.967C103.485 106.03 103.401 106.062 103.301 106.063C103.203 106.052 103.122 106.011 103.06 105.942L102.769 105.62C102.807 106.415 102.476 107.128 101.776 107.759ZM101.204 104.448C101.094 104.145 100.885 103.837 100.578 103.524C100.42 103.377 100.287 103.271 100.178 103.206C99.6343 102.854 99.1386 102.792 98.6907 103.02C98.5346 103.098 98.4036 103.203 98.2976 103.336C98.1923 103.457 98.1157 103.595 98.068 103.751C98.014 103.9 97.9899 104.048 97.9956 104.193C97.9917 104.523 98.1572 104.902 98.492 105.329C98.5163 105.37 98.5534 105.418 98.6034 105.474C99.1208 106.075 99.622 106.352 100.107 106.305C100.373 106.279 100.63 106.153 100.88 105.928C101.137 105.684 101.283 105.414 101.318 105.118C101.341 104.934 101.303 104.711 101.204 104.448Z" fill="#576168"/>
<path d="M105.718 99.1626L103.63 97.6308L102.976 98.5226C102.92 98.5979 102.844 98.6463 102.748 98.6679C102.649 98.6764 102.562 98.6531 102.486 98.5979L101.516 97.8858C101.433 97.8251 101.384 97.7491 101.37 97.6577C101.362 97.5589 101.385 97.4718 101.44 97.3966L102.094 96.5047L100.232 95.1386C100.149 95.0778 100.101 95.0018 100.087 94.9105C100.078 94.8117 100.101 94.7246 100.157 94.6493L101.175 93.2608C101.236 93.178 101.312 93.1296 101.403 93.1155C101.494 93.1015 101.581 93.1248 101.664 93.1855L103.527 94.5517L104.562 93.1406C104.623 93.0578 104.699 93.0094 104.79 92.9953C104.887 92.9738 104.977 92.9933 105.059 93.0541L106.03 93.7661C106.113 93.8268 106.159 93.9066 106.167 94.0055C106.181 94.0968 106.158 94.1839 106.097 94.2666L105.062 95.6778L106.981 97.0854C107.245 97.2786 107.48 97.3759 107.687 97.3774C107.895 97.3789 108.078 97.2706 108.238 97.0523L108.892 96.1605C108.953 96.0777 109.033 96.032 109.132 96.0235C109.223 96.0095 109.31 96.0328 109.393 96.0935L110.431 96.8553C110.507 96.9105 110.555 96.9865 110.577 97.0833C110.591 97.1747 110.567 97.2617 110.507 97.3445L109.72 98.417C108.55 100.012 107.216 100.261 105.718 99.1626Z" fill="#576168"/>
<path d="M113.896 90.9312C113.423 91.9669 112.775 92.6558 111.952 92.9979C111.12 93.3362 110.169 93.2714 109.101 92.8035L108.706 92.6231C107.711 92.1276 107.065 91.4528 106.768 90.5987C106.471 89.7445 106.553 88.8124 107.014 87.8022C107.348 87.0721 107.778 86.5245 108.304 86.1594C108.825 85.7819 109.401 85.5884 110.031 85.5788C110.657 85.5569 111.297 85.6952 111.95 85.9939L112.269 86.1393C112.362 86.182 112.427 86.2528 112.464 86.3517C112.496 86.4383 112.491 86.5283 112.448 86.6217L110.604 90.6583L110.68 90.6932C111.066 90.8592 111.417 90.9117 111.732 90.8505C112.039 90.7854 112.264 90.5959 112.408 90.2818C112.501 90.078 112.536 89.8993 112.514 89.7455C112.487 89.5794 112.436 89.4121 112.359 89.2435C112.309 89.1283 112.285 89.0456 112.287 88.9954C112.285 88.9329 112.307 88.8506 112.354 88.7488L113.116 87.0806C113.151 87.0042 113.205 86.9522 113.28 86.9245C113.349 86.8845 113.418 86.88 113.486 86.911C113.707 87.0119 113.907 87.2575 114.088 87.648C114.273 88.0299 114.361 88.5113 114.352 89.0922C114.347 89.6645 114.195 90.2775 113.896 90.9312ZM110.23 88.0402L110.205 88.0285C109.797 87.8424 109.442 87.788 109.14 87.8654C108.83 87.9389 108.601 88.137 108.453 88.4596C108.306 88.7822 108.306 89.085 108.454 89.368C108.597 89.6386 108.872 89.867 109.28 90.0532L109.305 90.0648L110.23 88.0402Z" fill="#576168"/>
<g filter="url(#filter0_d)">
<path d="M36.5515 14.353C35.8079 13.267 34.2529 14.1648 34.8217 15.3517L62.8913 73.9311C64.5122 77.3139 68.5047 78.71 71.5423 76.9563C74.5799 75.2025 75.367 71.0469 73.2479 67.9517L36.5515 14.353Z" fill="#C4C4C4"/>
</g>
<defs>
<filter id="filter0_d" x="22" y="3" width="62.7401" height="84.9563" filterUnits="userSpaceOnUse" color-interpolation-filters="sRGB">
<feFlood flood-opacity="0" result="BackgroundImageFix"/>
<feColorMatrix in="SourceAlpha" type="matrix" values="0 0 0 0 0 0 0 0 0 0 0 0 0 0 0 0 0 0 127 0"/>
<feOffset/>
<feGaussianBlur stdDeviation="4"/>
<feColorMatrix type="matrix" values="0 0 0 0 0.176471 0 0 0 0 0.223529 0 0 0 0 0.258824 0 0 0 0.2 0"/>
<feBlend mode="normal" in2="BackgroundImageFix" result="effect1_dropShadow"/>
<feBlend mode="normal" in="SourceGraphic" in2="effect1_dropShadow" result="shape"/>
</filter>
<linearGradient id="paint0_linear" x1="136" y1="43.5" x2="6.90138e-07" y2="43" gradientUnits="userSpaceOnUse">
<stop stop-color="#6ACFED"/>
<stop offset="0.302487" stop-color="#2CC895"/>
<stop offset="0.724713" stop-color="#FFC05C"/>
<stop offset="1" stop-color="#EA4B65"/>
</linearGradient>
</defs>
</svg>
