<svg width="136" height="136" viewBox="0 0 136 136" fill="none" xmlns="http://www.w3.org/2000/svg">
<g clip-path="url(#clip0)">
<circle cx="68" cy="68" r="64" stroke="#EAEBEC" stroke-width="8"/>
<path fill-rule="evenodd" clip-rule="evenodd" d="M68 8C36.2073 8 10.19 32.7275 8.13127 63.9992C7.98615 66.2036 6.20914 68 4 68C1.79086 68 -0.0122262 66.205 0.115716 63.9996C2.18638 28.3063 31.7875 0 68 0C104.212 0 133.814 28.3063 135.884 63.9996C136.012 66.2051 134.209 68 132 68C129.791 68 128.014 66.2036 127.869 63.9992C125.81 32.7275 99.7927 8 68 8Z" fill="url(#paint0_linear)"/>
<circle cx="69" cy="72" r="10" fill="#969CA0"/>
<g filter="url(#filter0_d)">
<path d="M7.72558 54.4802C6.48008 54.251 6.01534 55.9854 7.2086 56.4096L66.1005 77.346C69.5013 78.555 73.1939 76.6876 74.1017 73.2996C75.0095 69.9116 72.7454 66.4481 69.1956 65.7947L7.72558 54.4802Z" fill="#C4C4C4"/>
</g>
<path d="M54.7192 112C54.6259 112 54.5419 111.967 54.4672 111.902C54.4019 111.827 54.3692 111.743 54.3692 111.65V102.242C54.3692 102.139 54.4019 102.055 54.4672 101.99C54.5419 101.925 54.6259 101.892 54.7192 101.892H56.6792C56.7819 101.892 56.8659 101.925 56.9312 101.99C56.9965 102.055 57.0292 102.139 57.0292 102.242V109.802H61.2292C61.3319 109.802 61.4159 109.839 61.4812 109.914C61.5559 109.979 61.5932 110.063 61.5932 110.166V111.65C61.5932 111.753 61.5559 111.837 61.4812 111.902C61.4159 111.967 61.3319 112 61.2292 112H54.7192ZM70.5477 107.73C70.5664 107.982 70.5757 108.192 70.5757 108.36C70.5757 108.528 70.5664 108.738 70.5477 108.99C70.4917 109.998 70.1464 110.777 69.5117 111.328C68.8771 111.869 67.9717 112.14 66.7957 112.14C65.6197 112.14 64.7191 111.869 64.0937 111.328C63.4684 110.777 63.1277 109.998 63.0717 108.99C63.0531 108.869 63.0437 108.659 63.0437 108.36C63.0437 108.052 63.0531 107.842 63.0717 107.73C63.1184 106.741 63.4637 105.971 64.1077 105.42C64.7611 104.86 65.6571 104.58 66.7957 104.58C67.9437 104.58 68.8397 104.86 69.4837 105.42C70.1371 105.971 70.4917 106.741 70.5477 107.73ZM66.9357 106.344C66.8424 106.325 66.7351 106.325 66.6137 106.344C66.5017 106.363 66.4037 106.386 66.3197 106.414C66.1424 106.489 65.9884 106.605 65.8577 106.764C65.7831 106.848 65.7224 106.951 65.6757 107.072C65.6197 107.184 65.5731 107.333 65.5357 107.52C65.5077 107.66 65.4891 107.865 65.4797 108.136C65.4704 108.369 65.4704 108.565 65.4797 108.724C65.4984 109.032 65.5357 109.275 65.5917 109.452C65.6384 109.573 65.6757 109.667 65.7037 109.732C65.8251 109.947 65.9791 110.105 66.1657 110.208C66.3244 110.301 66.5111 110.353 66.7257 110.362C67.0244 110.381 67.2857 110.315 67.5097 110.166C67.7617 109.998 67.9391 109.732 68.0417 109.368C68.0697 109.293 68.0884 109.205 68.0977 109.102C68.1164 108.971 68.1304 108.766 68.1397 108.486C68.1397 108.365 68.1397 108.267 68.1397 108.192C68.1397 107.968 68.1304 107.795 68.1117 107.674C68.0744 107.394 68.0044 107.161 67.9017 106.974C67.8271 106.843 67.7477 106.736 67.6637 106.652C67.4771 106.475 67.2344 106.372 66.9357 106.344ZM74.6533 112C74.5227 112 74.42 111.972 74.3453 111.916C74.28 111.851 74.2287 111.762 74.1913 111.65L72.1753 105.168L72.1473 105.042C72.1473 104.949 72.18 104.874 72.2453 104.818C72.3107 104.753 72.3853 104.72 72.4693 104.72H73.9953C74.1073 104.72 74.2007 104.753 74.2753 104.818C74.35 104.874 74.3967 104.939 74.4153 105.014L75.5633 108.892L76.7813 105.042C76.8 104.958 76.8467 104.883 76.9213 104.818C76.996 104.753 77.094 104.72 77.2153 104.72H78.1813C78.3027 104.72 78.4007 104.753 78.4753 104.818C78.55 104.883 78.6013 104.958 78.6293 105.042L79.8473 108.892L80.9813 105.014C81.0093 104.939 81.056 104.874 81.1213 104.818C81.196 104.753 81.2893 104.72 81.4013 104.72H82.9273C83.0207 104.72 83.0953 104.753 83.1513 104.818C83.2167 104.874 83.2493 104.949 83.2493 105.042C83.2493 105.089 83.2447 105.131 83.2353 105.168L81.2053 111.65C81.14 111.883 80.9907 112 80.7573 112H79.4273C79.194 112 79.0353 111.883 78.9513 111.65L77.7053 107.926L76.4453 111.65C76.38 111.883 76.226 112 75.9833 112H74.6533Z" fill="#576168"/>
</g>
<defs>
<filter id="filter0_d" x="-3" y="41.4043" width="86.655" height="45.6909" filterUnits="userSpaceOnUse" color-interpolation-filters="sRGB">
<feFlood flood-opacity="0" result="BackgroundImageFix"/>
<feColorMatrix in="SourceAlpha" type="matrix" values="0 0 0 0 0 0 0 0 0 0 0 0 0 0 0 0 0 0 127 0"/>
<feOffset/>
<feGaussianBlur stdDeviation="4"/>
<feColorMatrix type="matrix" values="0 0 0 0 0.176471 0 0 0 0 0.223529 0 0 0 0 0.258824 0 0 0 0.2 0"/>
<feBlend mode="normal" in2="BackgroundImageFix" result="effect1_dropShadow"/>
<feBlend mode="normal" in="SourceGraphic" in2="effect1_dropShadow" result="shape"/>
</filter>
<linearGradient id="paint0_linear" x1="136" y1="43.5" x2="6.90138e-07" y2="43" gradientUnits="userSpaceOnUse">
<stop stop-color="#6ACFED"/>
<stop offset="0.302487" stop-color="#2CC895"/>
<stop offset="0.724713" stop-color="#FFC05C"/>
<stop offset="1" stop-color="#EA4B65"/>
</linearGradient>
<clipPath id="clip0">
<rect width="136" height="136" fill="white"/>
</clipPath>
</defs>
</svg>
